<?xml version="1.0" encoding="UTF-8"?> <svg xmlns="http://www.w3.org/2000/svg" width="79" height="64" viewBox="0 0 79 64" fill="none"><g clip-path="url(#clip0_1502_3298)"><path d="M43.516 49.1616H4.94614C2.24824 49.1616 0 46.9633 0 44.2155V4.94614C0 2.19828 2.19828 0 4.94614 0H59.1038C61.8017 0 64.05 2.19828 64.05 4.94614V28.5277C64.05 29.2272 63.5004 29.7767 62.8009 29.7767C62.1015 29.7767 61.5519 29.2272 61.5519 28.5277V4.94614C61.5519 3.59719 60.4528 2.49805 59.1038 2.49805H4.94614C3.59719 2.49805 2.49805 3.59719 2.49805 4.94614V44.2654C2.49805 45.6144 3.59719 46.7135 4.94614 46.7135H43.566C44.2654 46.7135 44.815 47.2631 44.815 47.9625C44.815 48.662 44.2654 49.2116 43.566 49.2116L43.516 49.1616Z" fill="#48BAC4"></path><path d="M4.94574 49.1615C4.94574 49.1615 4.44613 49.1116 4.24628 48.9617C3.69671 48.562 3.54683 47.8126 3.94652 47.213L22.6319 20.0842C22.8817 19.7345 23.2315 19.5347 23.6311 19.5347C24.0808 19.5347 24.4305 19.7345 24.6803 20.0343L34.1229 32.9742L40.2182 26.9789C40.2182 26.9789 40.7677 26.6291 41.1175 26.6291C41.4672 26.6291 41.767 26.779 42.0168 27.0288L49.2611 35.0725C49.7108 35.5721 49.6608 36.3715 49.1612 36.8212C48.6616 37.2708 47.8622 37.2209 47.4126 36.7212L41.0176 29.6268L34.8224 35.722C34.5726 35.9718 34.2229 36.1217 33.8232 36.0717C33.4734 36.0717 33.1237 35.8719 32.9239 35.5721L23.6811 22.8821L5.99492 48.562C5.74511 48.9117 5.34542 49.1116 4.94574 49.1116V49.1615Z" fill="#48BAC4"></path><path d="M46.2138 22.0327C42.9663 22.0327 40.3184 19.3848 40.3184 16.1373C40.3184 12.8899 42.9663 10.2419 46.2138 10.2419C49.4612 10.2419 52.1092 12.8899 52.1092 16.1373C52.1092 19.3848 49.4612 22.0327 46.2138 22.0327ZM46.2138 12.69C44.3152 12.69 42.8164 14.2388 42.8164 16.0874C42.8164 17.9359 44.3652 19.4847 46.2138 19.4847C48.0623 19.4847 49.6111 17.9359 49.6111 16.0874C49.6111 14.2388 48.0623 12.69 46.2138 12.69Z" fill="#48BAC4"></path><path d="M62.7505 64.0001C53.8575 64.0001 46.6631 56.7557 46.6631 47.9126C46.6631 39.0695 53.9074 31.8252 62.7505 31.8252C71.5936 31.8252 78.8379 39.0695 78.8379 47.9126C78.8379 56.7557 71.5936 64.0001 62.7505 64.0001ZM62.7505 34.3232C55.2564 34.3232 49.1611 40.4185 49.1611 47.9126C49.1611 55.4068 55.2564 61.502 62.7505 61.502C70.2447 61.502 76.3399 55.4068 76.3399 47.9126C76.3399 40.4185 70.2447 34.3232 62.7505 34.3232Z" fill="#48BAC4"></path><path d="M60.7026 54.1578C60.4028 54.1578 60.0531 54.0579 59.8033 53.8081L53.9079 47.9127C53.4083 47.4131 53.4083 46.6137 53.9079 46.164C54.4075 45.6644 55.2069 45.6644 55.6565 46.164L60.6526 51.1601L69.7955 42.0173C70.2951 41.5177 71.0945 41.5177 71.5441 42.0173C71.9938 42.5169 72.0437 43.3163 71.5441 43.7659L61.5519 53.7581C61.5519 53.7581 61.0024 54.1078 60.6526 54.1078L60.7026 54.1578Z" fill="#48BAC4"></path></g><defs><clipPath id="clip0_1502_3298"><rect width="78.8884" height="64" fill="white"></rect></clipPath></defs></svg> 