<?xml version="1.0" encoding="UTF-8"?> <svg xmlns="http://www.w3.org/2000/svg" id="Layer_1" data-name="Layer 1" viewBox="0 0 444.02 181.06"><defs><style>.cls-1{fill:#090400;}.cls-2{fill:#f39200;}.cls-3{fill:#f6efd7;}.cls-4{fill:#c36b15;}</style></defs><path class="cls-1" d="M377,152.85c-.25,0-.42.14-.67-.07a2,2,0,0,0-1.08-.06.31.31,0,0,1-.17.06,4.93,4.93,0,0,0-2-.34c-.08-.07-.08-.07-.17-.07s-.08-.07-.16-.07-.09,0-.09-.07c-.25.21-.25,0-.5-.21-.33.28-.58-.28-.83-.07a.55.55,0,0,1-.17-.27.37.37,0,0,1-.25.06.47.47,0,0,1-.25-.13c-.24.2-.41.2-.58.07,0-.07-.08-.07-.17-.07a1.22,1.22,0,0,1-.66-.21l-.59-.21a2.19,2.19,0,0,1-1.08-.41.67.67,0,0,0-.33-.14,1.41,1.41,0,0,1-.92-.49,9.64,9.64,0,0,0-1-.75c-.58-.49-.92-.91-1.5-1.39l-.5-.41a1.83,1.83,0,0,1-.58-.7A3.52,3.52,0,0,0,362,146a1.2,1.2,0,0,1-.42-.84c0-.21-.17-.27-.25-.48a3.58,3.58,0,0,1-.75-1.32l-.25-.27-.17-.21a1.36,1.36,0,0,0-.24-.55.2.2,0,0,1-.09-.14c.09-.49-.25-.9-.33-1.38v-.21a1,1,0,0,0,0-.69,3.26,3.26,0,0,1-.25-1.8,5.22,5.22,0,0,0-.09-1.18c0-.21.09-.49.09-.76v-1.8c.25-.48.08-.9.16-1.38l.17-1,.5-1.87c.25-.48.25-1,.5-1.59v-.21c.42-.48.42-1.1.67-1.59l.5-1.24.25-.84.33-1c.08-.21.25-.21.33-.42l.34-1c.08-.28.33-.49.41-.7l.26-.41v-.21a1.47,1.47,0,0,0,.49-.69c.25-.28.25-.49.5-.76s.09-.42.34-.63a7.26,7.26,0,0,1,.67-.76c.24-.27.33-.55.58-.9s.25-.34.5-.41a1.19,1.19,0,0,0,.5-.55c.25-.28.33-.63.75-.84.08-.34.41-.41.66-.69l.59-.55c.08-.14.16-.21.25-.21l.16-.14a3.44,3.44,0,0,1,.92-.83c.33-.2.5-.48.83-.69l.67-.41a.94.94,0,0,0,.42-.28,12.16,12.16,0,0,1,1.58-.69c.25,0,.17-.14.42-.21.08-.07.08-.07.16-.07a10.17,10.17,0,0,0,1-.27l.17-.15c.08,0,.17-.06.25-.06.25,0,.33-.14.58-.21l.67-.28c.33-.21.58-.07.83-.28a.37.37,0,0,1,.26-.07l1.51-.48a3.57,3.57,0,0,0,.46-.16l.78-.32c0-.07.08-.07.16-.07a3.29,3.29,0,0,1,2.09.69c.24.21.41.21.49.41.25,0,.17.28.42.35-.08.28.17.35.17.55a1.92,1.92,0,0,1,.42.14c.08,0,.08.07.08.28s0,.21.08.28a1.09,1.09,0,0,1,.59.69c.08.34.41.34.75.55l.32.14c.09.14.34.21.67.21,0,.07,0,.13.09.13.25.21.16.35.25.56a.59.59,0,0,1-.25.48,1,1,0,0,1-.33-.41c0-.07-.09-.21-.34-.28a1.18,1.18,0,0,0-.58-.2.36.36,0,0,0,.41.27c.42.42.59.83.34,1.31a.53.53,0,0,1,.17.84c0,.07-.09.2-.09.27s-.08.42-.34.62a.6.6,0,0,1-.66.14c-.41,0-.84-.27-1.25-.2-.08,0-.08,0-.17-.07-.24-.21-.58-.21-.83-.42-.25.07-.41.14-.41.21a.85.85,0,0,1-.59.21c-.25,0-.25.21-.5.27-.08-.06-.25-.06-.41.14a.36.36,0,0,1-.25.07c-.09-.07-.34,0-.59.14l-.5.14a3.75,3.75,0,0,0-.83.21c0,.07,0,.13-.09.13h-.41l-.25.28c-.09.07-.25-.14-.33.14a4,4,0,0,0-1.26,1c-.08.14-.24.2-.5.2a.43.43,0,0,0-.41.28l.25.21c0,.07,0,.07-.09.14l-1.08.21c-.25.06-.25,0-.5.2a.21.21,0,0,0-.08.14c-.17,0-.26,0-.26.07s.09.14.26.14l.08.07c.09.21,0,.34-.25.34a2.65,2.65,0,0,0-1.08.14l-.26.28a.69.69,0,0,1-.41.07.48.48,0,0,1-.08.35l-.5.62c0,.07,0,.07-.09.07-.41.21-.58.62-1,.83-.08.07-.16.13-.16.2-.17.14-.25.21-.17.21-.25.21-.25.42-.5.69l-.25.28c-.33.28-.42.69-.75.9-.08,0-.08.07-.08.14s-.25.2-.17.41L369,126a.69.69,0,0,0-.25.34c-.09,0-.09.07-.09.14s-.08.42-.33.63a2.22,2.22,0,0,0-.16.41v.07c-.34.21-.34.62-.42.9-.09.07-.09.21-.09.41a1.47,1.47,0,0,0-.33.56c-.25.21,0,.48-.25.69l-.17.76c.34.07.34.28.59.55.08.21,0,.35-.25.49s-.17.14-.25.21l.33.14v.06c-.08.21,0,.35-.25.56v.27c0,.15,0,.21-.08.28s-.09.07,0,.07c.25.21,0,.14,0,.35s-.34.48-.09.76l-.08.06c-.08.08-.17.15-.17.22s.09.13.09.27a3.73,3.73,0,0,0-.17,1,1.52,1.52,0,0,1-.08.69c0,.14,0,.28.08.34a.44.44,0,0,0-.25.56.92.92,0,0,1,0,.69.39.39,0,0,0,.17.49c-.25.27-.17.48-.42.76.17.14.25.27.17.34-.25.28,0,.56.08.84a2.55,2.55,0,0,0,.42.82c-.09,0-.09.07-.09.28.25-.07.34.07.59.28s.17.34.25.55a2.57,2.57,0,0,1,.5.49c-.09.06-.17.13-.17.2l.75.56a1,1,0,0,0,.75.27c.08,0,.08,0,.08.07.09.28.5.14.75.35l1.17.55c.42.21.92.21,1.33.42a.55.55,0,0,0,.34.06,3,3,0,0,1,.92.08H374c.58-.21.92.14,1.5-.08.25,0,.33.08.58.08a6.29,6.29,0,0,0,1.33-.21.43.43,0,0,0,.25-.14,7.39,7.39,0,0,0,.67-.76c.09-.14.17-.21.25-.21a.73.73,0,0,0,.42-.69,10.71,10.71,0,0,0-.09-1.73,6.75,6.75,0,0,1,.26-1.31l.16-.77V140a4.6,4.6,0,0,0-.33-1,.8.8,0,0,1-.09-.77c.09-.06,0-.2-.08-.41a.72.72,0,0,0-.33-.34.17.17,0,0,1-.17-.14l-.5-.49c-.25-.21-.17-.28-.42-.48-.08,0-.08-.07-.16-.07-.34-.07-.67-.35-1-.41s-.58-.15-.58-.35c-.25-.07-.25-.21-.49-.28l-.09-.07a2.63,2.63,0,0,1-1.08-.42h-.17a.36.36,0,0,1-.34-.2c-.24-.28-.41-.41-.66-.41-.08,0-.25-.14-.33-.42,0-.07.08-.07.08-.14a4.74,4.74,0,0,0,.33-.83.58.58,0,0,1,.25-.48c.17-.14.25-.28.17-.42.08,0,.08,0,.08-.07s0-.14.08-.14a.9.9,0,0,0,.68-.62v-.07c.33-.07.41-.34.66-.55a.49.49,0,0,1,.25-.14l.17-.14c.08-.21.41-.14.5-.35a.79.79,0,0,1,.49-.2c.09,0,.09-.07.17-.07a1.16,1.16,0,0,1,1.59,0c.08,0,.08.07.16.07a2.4,2.4,0,0,1,1.09.62c.08,0,.17.07.25.07l.16.14c.09.27.42.41.68.69a2.68,2.68,0,0,1,.66.69c.08,0,.17,0,.17.07h.16c.25.28.59.14.83.35a8.13,8.13,0,0,1,1.5.9l.42.28a1.61,1.61,0,0,1,.58.48,6.75,6.75,0,0,0,1.25.76c.25.07.34.21.59.41l.24.21a1.08,1.08,0,0,1,.59.69c0,.07.17.14.17.21l.16.28a1.32,1.32,0,0,0,.42.55c.25.21.17.35.42.55v.21c0,.07,0,.14.08.14a.52.52,0,0,1,.17.42,3.24,3.24,0,0,0,.16.76c.25.48.25,1,.5,1.52a2.54,2.54,0,0,1-.16.41c.08.21.33.28.08.56.25.2-.17.55.08.83.09.07.09.13.09.34s0,.35.08.42c.25.21,0,.34-.08.55s-.09.21-.09.28a.37.37,0,0,1-.33.41c-.08.07-.08.14-.17.35-.24.27-.33.62-.58.9s-.17.62-.41.9c0,.2.16.27.24.48v.14a2.89,2.89,0,0,1-.41,1.38h-.09a1.62,1.62,0,0,1-.41,1,2.07,2.07,0,0,0-.42.69c-.25.35-.58.42-.92.7a.48.48,0,0,1-.5.07.22.22,0,0,1-.08.2c-.25.21-.5.28-.75.49l-1.66.69-.09.07c-.42-.21-.83.14-1.25.14h-.17a.63.63,0,0,1-.83-.07c-.08.07-.08.07-.16.07a1.67,1.67,0,0,1-1.59.41,1.38,1.38,0,0,0-.58.14A1.32,1.32,0,0,0,377,152.85Zm-12.84-15.42c0,.06,0,.13.09.13s.08.28,0,.35a1.71,1.71,0,0,0,.33,1c.08-.14.17-.28.08-.35s0-.28.09-.34.17-.42-.09-.77v-.2c0-.21.17-.49-.08-.7l.34-.2a.88.88,0,0,1,.24-1.11V135c.25-.2,0-.34,0-.55a.7.7,0,0,0,.25-.55c0-.07.09-.14.09-.21a4.52,4.52,0,0,1,.25-1.18c.08-.2,0-.27.08-.48a5.39,5.39,0,0,1,.75-1.32c.08-.07.08-.07,0-.13,0-.35.25-.7.25-1a2.32,2.32,0,0,1,.42-1c-.09-.21,0-.35.25-.56.08-.2,0-.41.25-.62a.63.63,0,0,0,.25-.69c0-.14.08-.21.17-.21a.48.48,0,0,0,.41-.48c-.08-.21.08-.41.33-.62a.58.58,0,0,0,.25-.49c0-.27.25-.41.34-.62s.25-.07.33-.28a.63.63,0,0,0-.08-.9,1.05,1.05,0,0,1-.42.7,11.87,11.87,0,0,0-.83,1.31l-.33.55-.17.28c-.25.21-.5.35-.58.69l-.17.14c-.34.07-.42.28-.34.69a.18.18,0,0,1,0,.28.82.82,0,0,0-.33.48.47.47,0,0,0,.17.28c-.25.21-.17.21-.25.42s0,.34-.25.55a.47.47,0,0,0-.25.62c0,.35-.25.69-.25,1s-.17.21-.17.28l-.17.13c.26.21-.08.35-.16.56a.16.16,0,0,1,.16.14,1.27,1.27,0,0,1-.41,1v.63a1.33,1.33,0,0,1-.08.62c-.26,0-.26-.41-.59-.14,0,.21.08.21.08.41s-.33.28-.25.49,0,.35-.08.42l.08.21.25.13c0,.48-.5.55-.58,1A.38.38,0,0,1,364.18,137.43Z" transform="translate(-6.56 -4.7)"></path><path class="cls-1" d="M424.47,146.2a2,2,0,0,1,.91,0c0,.08.09.07.17.07h.17c.08-.07.07-.28.15-.35s-.09-.2-.1-.27c-.26-.34-.17-.34.23-.56.17-.08.25-.15.25-.29a.41.41,0,0,0-.27-.34c-.17,0-.33,0-.41.09-.09-.28,0-.42.23-.49s.33-.08.33-.15-.09-.21-.26-.2a.38.38,0,0,0-.33,0,1.93,1.93,0,0,0,.06-.63,4.54,4.54,0,0,0-.49-1.78c-.1-.35-.11-.55,0-.69s0-.14,0-.35-.1-.27-.19-.55l0-.55c0-.28,0-.48.06-.56s0-.34-.11-.55c-.08-.06-.09-.2-.1-.41a3.48,3.48,0,0,0-.15-1.86,2.16,2.16,0,0,1,0-1,5.81,5.81,0,0,0,0-1.25.8.8,0,0,1,.42-.08l.14-.63c0-.2-.1-.34-.26-.33a.75.75,0,0,0-.42-.06l-.2-1c0-.35-.11-.62-.13-.9-.08-.07-.08-.2-.1-.34.24-.36,0-.63,0-1.11-.44-.54.12-1.11-.15-1.66.24-.28,0-.48-.11-.75a2.9,2.9,0,0,1,0-1c0-.2,0-.34.07-.41h.33a.48.48,0,0,0,.24-.15c-.08,0-.08-.13-.16-.13l-.59,0v-.28a3.76,3.76,0,0,0-.12-1,2.86,2.86,0,0,1,0-.84c.06-.34,0-.68.2-1a.19.19,0,0,0,0-.28,2.35,2.35,0,0,1,.05-1,5.82,5.82,0,0,0,.18-1.6v-.28a.38.38,0,0,0,.08-.28c-.27-.34-.12-.76-.13-1.1l0-.9c0-.07,0-.14.08-.14a2.78,2.78,0,0,0,.37-1.26.21.21,0,0,0,.07-.21c.22-.77.7-1.41,1-2.18l.25-.21a1,1,0,0,0,.22-.63,2.72,2.72,0,0,1,.46-1.2,7.51,7.51,0,0,1,2.17-1.86,16.3,16.3,0,0,1,3.51-1.84,9.07,9.07,0,0,1,5.75-.32,12.54,12.54,0,0,1,2.7.75l1.11.5.32.16.95.51a9,9,0,0,1,2.32,1.73c.34.47.77.73,1.13,1.21a2.33,2.33,0,0,1,.63,1.29,4.83,4.83,0,0,0,.4,1.58c.26.34.1.62.11.9-.08.07-.16.14-.07.21.27.61-.29,1.18-.18,1.8,0,.07-.08.15-.08.21a1.08,1.08,0,0,0-.21,1c.09.27-.06.49-.14.77l-.29,1a4,4,0,0,1-.51,1.33l-.55.92a4.76,4.76,0,0,0-.49.84,5.4,5.4,0,0,1-1,1.48,7.07,7.07,0,0,1-1.05,1.14l-.15.29c0,.07-.08.2-.07.27l-.88,1c-.08.21-.24.22-.32.29l-.49.43c-.24.21-.41.22-.58,0a.87.87,0,0,0-.75-.12c-.41.22-.83.31-1.23.53a.54.54,0,0,0-.4.42,2.21,2.21,0,0,1-1.22.94,2.22,2.22,0,0,0-1,.65.91.91,0,0,1-.41.36c-.48.36-.55.78-.12,1.18.26.2.19.41.44.61a10.21,10.21,0,0,0,1.3,1.21l1.29,1a12.44,12.44,0,0,1,1.55,1.33,9.06,9.06,0,0,1,1.59,2.31,2.48,2.48,0,0,0,.63,1.08l.79,1.09a7,7,0,0,1,.78,1.19,6.09,6.09,0,0,0,1.1,1.57c.14.13.27.27.41.42.35.47.69.67,1.05,1.14l1,1.29c.26.27.27.61.53.95.09.07,0,.14.1.21l.7.87c.26.27.35.54.62.81s.26.41.52.61a5.21,5.21,0,0,1,.89,1.5c.18.34,0,.62-.39.84a.87.87,0,0,1-.32.15c-.25.22-.41.15-.59-.05s-.42-.13-.84-.05a2.75,2.75,0,0,1-2.33,0l-.85-.4a5.32,5.32,0,0,1-2.05-1.64v0l-.74-1.19a5.15,5.15,0,0,0-.32-.45l-1.5-1.95c-.78-.87-1.25-2-1.95-2.84a26.26,26.26,0,0,1-1.95-3.13,13,13,0,0,0-1.06-1.56l-1.32-1.82a21.66,21.66,0,0,1-1.33-1.9l-.08-.07a10.19,10.19,0,0,1-2.17-1.94l-.34-.33c-.26-.2-.42-.13-.58.15l-.15.42a8,8,0,0,1-.11,1.46c0,.28.11.62.12.89,0,.77,0,1.32,0,1.95v.34a2.28,2.28,0,0,1,.05,1,1.17,1.17,0,0,0,0,.76c.27.48.12.76.13,1.24a7.62,7.62,0,0,0,.17,2.28.22.22,0,0,1,.1.2,2.79,2.79,0,0,0,.13,1.18,9,9,0,0,0,.22,1.44c.1.49,0,.77.13,1.25a1.85,1.85,0,0,0,.11.69.73.73,0,0,1-.13.83l-.24.42a1.83,1.83,0,0,1-1.38.81l-.92,0c-.41,0-.67-.12-.77-.46l-1.08-2.19a2.23,2.23,0,0,0-1.21-1.14,1.17,1.17,0,0,1-.51-.26Zm0-19.72a.74.74,0,0,0,.33.12c.17,0,.25-.07.25-.21s0-.14-.1-.27-.25-.14-.51-.34A1,1,0,0,0,424.45,126.48Zm.37-5.28c-.16.14-.15.21.1.21a.53.53,0,0,0,.24-.15c0-.21,0-.34.07-.42C424.81,120.79,424.9,121,424.82,121.2ZM426.11,137c0-.21-.1-.28-.34-.27s-.42.15-.41.36.18.2.43.19S426.12,137.22,426.11,137Zm15.41-26.1a3.63,3.63,0,0,0-.87-.73,12.33,12.33,0,0,0-1.52-.51,3.14,3.14,0,0,0-1.34-.1,8.81,8.81,0,0,0-3.44,1.29,12.26,12.26,0,0,0-2,1.51,5.83,5.83,0,0,0-.94,1.42,4.66,4.66,0,0,0-.26,1.87,4.56,4.56,0,0,1-.2,1.46l-.21.91a6.44,6.44,0,0,1,0,1.24,4.76,4.76,0,0,0-.19,1.53l-.12,1.25a3.11,3.11,0,0,0,0,1.25v.28l-.2,1.11c0,.21-.07.42.19.62a.6.6,0,0,0,.74-.1c.09,0,.09,0,.09-.07l1.46-.87a10.9,10.9,0,0,1,1.39-.88c.78-.45,1.56-.89,2.35-1.44a6.22,6.22,0,0,0,.64-.51,10.7,10.7,0,0,0,1.61-2l1.57-2.4c.21-.35.45-.67.68-1a5,5,0,0,0,.75-1.77c.11-.53.18-1.07.31-1.65A3.06,3.06,0,0,0,441.52,110.92Z" transform="translate(-6.56 -4.7)"></path><path class="cls-1" d="M415.66,146.8a12.5,12.5,0,0,1-4.17.46c-.22,0-.44,0-.66.07a11,11,0,0,1-2.62.23c-.08,0-.17,0-.17.07-.24.2-.41,0-.5,0l-.41-.28-.25-.76a.83.83,0,0,0-.17-.28c-.25-.21-.08-.21-.17-.41-.25-.35-.25-.7-.49-1s-.17-.41-.25-.62a4.2,4.2,0,0,0-.25-1c-.09-.49-.17-.49-.09-.83s0-.28-.08-.35-.09-.14-.09-.35a15.52,15.52,0,0,1-.33-2.62c-.08-.07-.08-.21,0-.35s0-.14-.08-.21c0-.27-.09-.62-.09-.89a1.93,1.93,0,0,0-.16-.77c-.09-.21-.34-.27-.09-.48-.08-.28.09-.55-.16-.83s-.17-.21,0-.21c.08-.21,0-.14,0-.35a1.35,1.35,0,0,1,.08-.62c0-.21.17-.27-.08-.48s.08-.56.41-.76.5-.14.76-.35a1.06,1.06,0,0,1,.34-.15c.42-.13.27-.1.58-.09l1.09-.17a9.25,9.25,0,0,1,1.18,0,4.47,4.47,0,0,0,1.72-.1,6.21,6.21,0,0,0,1.39-.23c.06,0,.13-.05.2-.05.47-.14.74-.46,1.2-.39.08-.27-.19-.28-.38-.45,0-.22.28-.26.48-.42.2,0,.4,0,.6,0a.59.59,0,0,0,.59-.09.25.25,0,0,0,.2,0l.47-.1a.41.41,0,0,0,.21-.37c0-.06.07-.11.21-.21-.18-.39-.19-.34.29-.59a.53.53,0,0,0-.38-.4c-.2,0-.33-.06-.53-.07-.32-.18-.38-.34-.11-.55a.6.6,0,0,0,.16-.43c0-.27-.05-.55.29-.7.07-.27-.05-.5-.37-.67a2,2,0,0,0-.7-.41c-.14,0-.2-.11-.19-.28s-.12-.33-.37-.5a.36.36,0,0,0-.4-.07.32.32,0,0,1-.32,0,.26.26,0,0,0-.2-.06,2.39,2.39,0,0,0-1.24-.1.85.85,0,0,1-.53,0c-.19-.17-.39-.12-.47.15l-.19-.12a.64.64,0,0,0-.79-.08.35.35,0,0,1-.39,0,.67.67,0,0,0-.53.08,3.13,3.13,0,0,1-.4.1,2.42,2.42,0,0,1-.86.08c-.07,0-.07,0-.07,0-.27.21-.66.15-.93.3a.31.31,0,0,0-.2.05c0,.06-.54.15-.8.28-.11,0-.2,0-.35.07s-.34-.14-.42-.35c-.25-.48.16-.9.08-1.38.25-.21.08-.48.17-.69a1.61,1.61,0,0,0-.25-.76,3,3,0,0,1,.08-1,.24.24,0,0,0-.08-.21c0-.21-.09-.41-.09-.62s.09-.21.09-.28l-.17-2.07v-.14a4.47,4.47,0,0,0,0-1.46c0-.06.08-.2.08-.27-.08-.28.25-.48.17-.76a1.15,1.15,0,0,1,.08-.9V115c-.08-.21.09-.48.34-.83.08-.21.25-.27.42-.14a.56.56,0,0,0,.58-.07.78.78,0,0,1,.33-.14,1,1,0,0,1,.5-.06l1.17-.28c.29-.11.58-.26.89-.39a2.37,2.37,0,0,1,.94-.23c1-.16,2-.07,3.06-.33a1,1,0,0,1-.1-.52c0-.43.58-.61,1-.43v-.35c.58.43,1.83-.08,1.25-.78,0-.08-.38,0-.58-.08a.3.3,0,0,0,.1-.26c.29.17,1,.43.87-.09a1.66,1.66,0,0,1-.29-.6c.19-.7.58-1.48-.39-1.82a9.62,9.62,0,0,0-4.14-.36l-.76.07a1.21,1.21,0,0,0-.32.14l-.67-.13a2.41,2.41,0,0,0-.66.21l-1.59.62c-.33.21-.83-.27-1.16-.07-.59.28-.34,1-.92.49,0-.07-.42.14-.5.07-.25-.21-.5.34-.84.27s0,0-.24,0-.42,0-.5-.07a.44.44,0,0,0-.42,0,1.31,1.31,0,0,1-1.25,0,.39.39,0,0,0-.17.35c.09.21-.16.21-.16.41s.25-.13.25.08c-.09.48-.09-.14-.34.34a5.09,5.09,0,0,0-.33.83c0,.14,0,.2-.09.28l-.66,2.28a1.43,1.43,0,0,1-.17.49c-.25.48,0,1-.41,1.52a1.27,1.27,0,0,1-.25,1.1c-.09.21,0,.35-.09.56s-.17.41-.25.62-.16.48-.08.69-.17.42-.17.69a2.2,2.2,0,0,0-.25.76c-.08.28-.25.56-.16.83s0,.21-.09.28l-.66,1.59c-.09.49.08.9-.17,1.25v.41c-.25.49-.08,1-.33,1.52-.09.07-.09.28-.09.56s0,.27-.08.34a2.06,2.06,0,0,0,0,.7c0,.14,0,.2-.08.2-.26.35-.08.69-.17,1s.25.35,0,.55a5.19,5.19,0,0,1-.09,1.11c-.24.49,0,.83,0,1.32,0,.28.26.55,0,.76v.21a.25.25,0,0,1,.09.34c-.09.07-.09.14-.09.28s.09.55.09.9v.83a9,9,0,0,0,.09,1.52v.07c-.26.34-.09.69-.09,1v1.45a.24.24,0,0,0,0,.42c.25.34.17.62.25.9l.17,1.17a2.7,2.7,0,0,1,.33,1.52c.08.49.42,1,.33,1.52,0,.08,0,.08.09.08.25.2.08.27.16.48s.09.27.17.55l.25.83.08.07c.08-.07.17,0,.17.21s0,.48.08.69a.86.86,0,0,0,.42.55c.25.21.08.42.17.63a1.63,1.63,0,0,1,.5.62c.25.62.91,1,1.16,1.59.42.28.67.9,1.33,1,.25,0,.25.14.51.14.08,0,.16.14.42.21l.49.13c.67.21,1.33.21,2,.49a3,3,0,0,0,.75.21c2.14-.2,5.11-.3,7.22-1.28a6.37,6.37,0,0,0,.86-.47c1.74-1,1.66-1.62,2-3.29C415.83,147.22,415.89,146.6,415.66,146.8Z" transform="translate(-6.56 -4.7)"></path><path class="cls-1" d="M350.08,118.82c-.2.29,0,.64-.49.72,0-.08-2.48.28-3.44-.34a3,3,0,0,1-.62-.56,6.76,6.76,0,0,1-1-3.42,4.8,4.8,0,0,1,.08-.85c.12-1.92,2.35-2.78,4.18-2.87a1.05,1.05,0,0,1,.48.18v-.18c.68.35,1.45.69,1.74,1.3a.88.88,0,0,0,.39.08,4.06,4.06,0,0,1,.18,2.14,6.79,6.79,0,0,1-.32.78c-.08.26-.63,1-.35,1.49,0,.09-.19.09-.28.18s-.2.43-.09.57C350.33,118.42,350.21,118.67,350.08,118.82Zm-9,23.1c0-.42,0-.77,0-1.2,0-.21,0-.41,0-.61a3.89,3.89,0,0,0,0-.6,5.74,5.74,0,0,1,.32-2.94,5.29,5.29,0,0,1,.07-.9,5.62,5.62,0,0,1,.26-.9l.17-.83c0-.21.08-.21.08-.41a1.42,1.42,0,0,0,.17-1,12.43,12.43,0,0,1,1.44-6.11,3.11,3.11,0,0,0,.39-1c0-.09.39-.09.48-.26a3.88,3.88,0,0,1-.05-.66,1.93,1.93,0,0,1,.25-.62,2.19,2.19,0,0,1,1.06-.88c1-.44.76.1,1.73-.07a6.62,6.62,0,0,1,2.29.34c1.18.08.75,1.23.5,2.08-.06.23.2.45.27.67.81,2.86,1.48,5.63,1.06,8.6,0,.38.06.73.07,1.07s0,.7,0,1.07a48.83,48.83,0,0,0-.08,8.29,5.52,5.52,0,0,1-.1.71,3,3,0,0,1-.23.69V147c0,.14,0,.27-.08.34s0,.38-.07.56c.33,2-1.6,3.85-3.82,4a10.29,10.29,0,0,1-3.45-.58,1.07,1.07,0,0,1-.83-.48c.09-.2.17-.28.09-.35a.73.73,0,0,0-.42-.48,1,1,0,0,1-.42-.62c-.28-.52-.18-1.13-.47-1.64-.58-1.65-.29-3.55-.54-5.32C341.15,142.25,341.1,142.09,341.05,141.92Z" transform="translate(-6.56 -4.7)"></path><path class="cls-1" d="M335.69,110.19l-.6-.16c-.06-.07-.22-.09-.37-.12l-.45-.08a6.29,6.29,0,0,0-.71-.3c-.25-.08-.51-.14-.77-.2-2.11-.28-4.17-.38-6.25-.78-.27,0-.71-.18-1-.16h-.09a19,19,0,0,0-2-.14,7.74,7.74,0,0,0-1.08-.13,3.91,3.91,0,0,1-1.17-.07l-1.66-.21a15.17,15.17,0,0,0-1.75-.21l-.59-.08h-.06c-.66-.07-1.32-.13-1.89-.25l-2.61-.5a16.68,16.68,0,0,0-1.71-.34,16.16,16.16,0,0,0-2.51-.07,2.19,2.19,0,0,0-.9.38c0,.18-.06.36,0,.42l0,.18c.31.21.27.44-.1.65.64.24.65.66.67,1.08s.26.5.67.54c0,.06,0,.06-.09.05.22.2.2.32.44.4s.77.5,1.24.72a1.91,1.91,0,0,0,.79.32c.4.1.8.26,1.37.38a7.39,7.39,0,0,0,3,.41l.41,0c.21,0,.68.09.89.11h0l.45.07c.66.13.83.48.49,1a1.27,1.27,0,0,0-.33.55l-.16.48a1.66,1.66,0,0,0-.42,1.11l-.25.83-.25,1a7.35,7.35,0,0,1-.17,1.31,6.14,6.14,0,0,1-.41,1.53,5.07,5.07,0,0,1-.34,1l-.25,1.18a7.1,7.1,0,0,0-.17,1.1,8.11,8.11,0,0,1-.5,2.5,2.32,2.32,0,0,0-.17,1.1.38.38,0,0,1-.08.28v.41c-.08.63,0,1.25-.08,1.87v1.18A8,8,0,0,1,314,132c0,.21.08.21.08.42a8,8,0,0,0,.08,1.38v.63a6.51,6.51,0,0,0,.08,1.24,5.42,5.42,0,0,1-.08,2.07V138a9.07,9.07,0,0,1,.08,2.7c0,.76,0,1.52-.08,2.35-.08.62.17,1.25.08,1.87v.14c0,.07.09.14.09.35,0,.48.08.69.08,1.17,0,.27.08.62.08.9s.09.62.09.9v.14c0,.21.09.48.09.69a14.94,14.94,0,0,1,.33,1.87c0,.07-.09.28-.17.55a.84.84,0,0,0,0,.63.41.41,0,0,0,.42.2c.25.07.33.21.58,0h.25a1.08,1.08,0,0,1,.34.14c.58.07.83.28,1.41.07.09-.07.09-.07.17-.07.67,0,1.33.07,2.08.07a16.8,16.8,0,0,1,1.92-.07c0-.07.08-.21.16-.48s.25-.07.5-.28a.79.79,0,0,0-.33-.48c-.08-.07-.08-.28,0-.49l.58-1a3.29,3.29,0,0,0,.5-2,4.24,4.24,0,0,1,.09-1.46,4.35,4.35,0,0,0,.16-.83c.09-.28,0-.48.09-.69a6.4,6.4,0,0,0,.08-1.8c-.17-.14-.17-.2,0-.2.25-.21.25-.49.33-.76a.94.94,0,0,0,0-.7,1,1,0,0,1,.09-.69,4,4,0,0,0,.25-1.38l.16-.77.33-1.1c.09-.49.34-.69.09-1.18v-.14l.25-1.17v-.14a.66.66,0,0,1,0-.55.52.52,0,0,0-.17-.42.55.55,0,0,1-.17-.27.58.58,0,0,0-.16-.7.73.73,0,0,0,.16-.9c-.08,0-.08,0-.08-.07.25-.48-.16-.9-.25-1.38,0,0-.08-.38-.18-.77a2.25,2.25,0,0,1-.22-1.46c0-1.29.48-2.59.57-4a7.67,7.67,0,0,1,.59-2.48c.07-.26.12-.51.17-.77-.17-1,1-2.11.12-2.89.09-.08.29-.17.29-.34,0-.35-.49-.43-.49-.78a.52.52,0,0,1,.49-.69c.38,0,.67.43,1.06.43,1.25.09,2.61-.43,3.82,0l1,.13a11.51,11.51,0,0,0,1.94.06c.62-.11,1.27.07,1.89,0a1.21,1.21,0,0,0,.76-.2.85.85,0,0,1,.61-.21c.09-.05.15,0,.36.12.43-.12.64-.34.69-.52a6,6,0,0,0,1.26-2.45C339.61,112.09,338,110.32,335.69,110.19Z" transform="translate(-6.56 -4.7)"></path><path class="cls-1" d="M33.19,146.86v.21c-.3.2-.3.47,0,.74-.6.21-.67.69-.74,1.16a.64.64,0,0,1-.67.55c0,.07,0,.07.08.07-.22.21-.22.35-.44.41-.37.21-.74.48-1.18.69a1.71,1.71,0,0,1-.74.27c-.37.07-.74.21-1.26.28a4.94,4.94,0,0,1-2.65.13h-.37a21.19,21.19,0,0,1-2.87-.2l-3.17-.69a20.45,20.45,0,0,1-3-1.36,11.34,11.34,0,0,1-3-1.72A4.34,4.34,0,0,1,12,146.24c-.52-.47-.82-1.09-1.33-1.64-.07-.07-.07-.27-.14-.34a2.84,2.84,0,0,1-.38-.62,12.81,12.81,0,0,1-.81-1.36.78.78,0,0,1-.15-.48c.08-.34.15-.82-.14-1.09-.08-.21-.37-.14-.59-.21s0-.41-.22-.68L8,139.27l-.15-.14c-.22-.61-.22-1.23-.44-1.78-.08-.27.07-.61-.23-.82v-.07a13.15,13.15,0,0,1,.15-1.64l.15-.13v1H7.6c.07-.2.22-.13.22-.34a1.89,1.89,0,0,0-.44-1.23c-.08-.21-.23-.27-.23-.48s-.15-.75.08-1a.52.52,0,0,0-.15-.61V132l.07.07c0-.2.08-.41.08-.61s0-.76-.23-1a6,6,0,0,1-.44-2.8c0-.21.15-.48.15-.69a2.22,2.22,0,0,0,0-.68c0-.21.52-4.86.52-5.13,0-.48.07-.68.07-1.16.08-1.1.08-2.12.08-3.15s-.08-5.74.29-6.56c.3-1.16.37-2.33.59-3.42a4.4,4.4,0,0,0,.15-1.71c.07.07.14.07.29.07a25.13,25.13,0,0,0,2.8,1.23,3.91,3.91,0,0,1,1.41,1,3.33,3.33,0,0,0,.95.69,1.08,1.08,0,0,1,.45.89c0,.89.14,5.4.14,6.29a20.17,20.17,0,0,1-.14,2,1.08,1.08,0,0,1-.3.55l.59-.21a5.83,5.83,0,0,1,.07,1l.15,1.09c0,.55-.37,5.27-.37,5.82V128a5.23,5.23,0,0,1-.22,1.1c0,.27-.15.55.37.62.07,0,.15.06.15.2.07.55.29,1.1-.08,1.57-.07.07.08.14.08.35a5.72,5.72,0,0,0,.22,1.57,3.41,3.41,0,0,1,.3,1.71v.14c0,.06,0,.06.07.06.37,0,.29.34.37.55a2.49,2.49,0,0,0,.29.61,3.56,3.56,0,0,1,.3,2v.75c0,.07,0,.07.07.13.52.35.52.9.74,1.44a3.18,3.18,0,0,0,1,1.92l.89,1.09a4.45,4.45,0,0,0,2.28,1.44l1.18.55a4.77,4.77,0,0,0,1.33.27,6.22,6.22,0,0,0,.95.14,13.1,13.1,0,0,0,1.7-.07l2.36-.28a13.69,13.69,0,0,1,1.55-.2,11.8,11.8,0,0,1,2.21.2,1.89,1.89,0,0,1,.74.55C33.26,146.58,33.26,146.79,33.19,146.86ZM8,116.5c.22-.2.36-.14.44-.34v-.48H8c.58.48.14.48-.08.68C8,116.43,8,116.43,8,116.5ZM8,119.71c0,.21.07.28.07.48l.22.14c.08-.07.15-.14.15-.21a1.86,1.86,0,0,0,0-.88c0-.35-.07-.49-.29-.49Zm1.4-10.87a1.46,1.46,0,0,1,.15-.55c-.08,0-.08-.06-.15-.06H9.37c-.23.13-.23.34-.08.54C9.37,108.77,9.37,108.77,9.44,108.84Zm3.17,22.57c0-.28.07-.62.07-.9a.85.85,0,0,0-.81-.4c.37.34.3.89.59,1.36C12.54,131.41,12.54,131.41,12.61,131.41Zm2.73,4.3c-.15,0-.3,0-.37-.07V136c.07-.07.22-.07.37-.07Z" transform="translate(-6.56 -4.7)"></path><path class="cls-1" d="M38.2,112.81a1.34,1.34,0,0,0-.44-1c-.07-.14-.15-.27-.07-.34a.34.34,0,0,1,.37,0,.61.61,0,0,0,.58.07c.15,0,.23-.07.23-.14.07-.27.36-.27.59-.48.07,0,.14,0,.14-.07.22-.07.22-.2.44-.2a5,5,0,0,1,.67.13c0,.21.07.21.07.42.23-.21.15-.28.37-.48a3.53,3.53,0,0,1,1.11.68.77.77,0,0,0,.29.14l.45.2c.07.07.07.14.07.27a.84.84,0,0,0,.29.82,10.55,10.55,0,0,1,.89,1.58l.22.68a.65.65,0,0,0,.22.34,1.11,1.11,0,0,1,.15,1,2,2,0,0,1-.37,1c0,.27-.15.41-.37.68-.07.07-.07.28-.07.55a3.8,3.8,0,0,1-.37-.14,1.06,1.06,0,0,0-.44.55.4.4,0,0,1-.45.27.31.31,0,0,1-.22-.06c-.37-.21-.74-.08-1.25,0a.66.66,0,0,1-.37-.14l-.3-.21a3.07,3.07,0,0,1-.73-.54l-.22-.21a.85.85,0,0,0-.22-.34,1.13,1.13,0,0,0-.3-.41c0-.07-.07-.14-.07-.21.22-.2,0-.27-.08-.48a.53.53,0,0,1,0-.47c.08-.21,0-.35-.29-.35s-.3-.06-.15-.2.3-.14.37-.34a.16.16,0,0,0,.15-.14c0-.14-.08-.21-.15-.21-.52-.27-.52-.2-.3-.68-.22-.07-.15-.14-.36-.2.21,0,.14-.07.36-.07,0-.21-.07-.28-.29-.28C38.28,113.29,38.2,113,38.2,112.81Zm9.37,29.26v.21a.75.75,0,0,1,0,.55v.95a1.67,1.67,0,0,0,0,.89v.07c-.23.62-.23,1.16-.44,1.78,0,.2-.15.13-.23.34s-.22.21-.22.27c0,.48-.22.68-.29,1.16a.94.94,0,0,1-.37.62.66.66,0,0,0-.37.48c-.07.06,0,.13.07.34a.93.93,0,0,1-.73.48.54.54,0,0,1-.3.06,1,1,0,0,0-.29.14c-.22.21-.37.21-.44.07-.23.07-.23.35-.45.28s-.29.2-.51.2a4.48,4.48,0,0,0-1.11.07c-.37.07-.67.14-.74.14s-.22.07-.44.07l-1.11-.41a1.08,1.08,0,0,1-.37-.76,1.68,1.68,0,0,0-.22-.82,4.83,4.83,0,0,1-.14-.82,11,11,0,0,1-.38-2.19c-.07-.06-.07-.2-.07-.34v-.41a9.23,9.23,0,0,1-.36-2.87c0-.48-.08-.89-.08-1.37V140c0-1,0-2,.08-3v-1c0-.76,0-1.37.07-2.12a20.06,20.06,0,0,1,.07-2.05,18.63,18.63,0,0,1,.29-2.67,10.13,10.13,0,0,1,.15-1.1l.23-1.22.22-1.58c0-.27.07-.54.07-.75l.22-1.64c0-.21-.15-.34-.22-.55a.55.55,0,0,1-.22-.41l.29-.2c.08-.07.15-.14.23-.14h.07c.37-.48.74-.14,1.1-.14a9.35,9.35,0,0,1,1.11.35,4,4,0,0,1,1.18.34.23.23,0,0,1,.15.07,2.21,2.21,0,0,1,1,.81c.22.35.29.69.51,1-.36.48-.29.55.3.75,0,.21.07.41.07.62s0,.34.22.55.08.2,0,.34.08.34.22.34a.49.49,0,0,1,.15.28,4.24,4.24,0,0,1,.3,1.3c.07.26,0,.54.22.81a2.15,2.15,0,0,1,.22,1,4.06,4.06,0,0,1,.22,1.37.46.46,0,0,1,0,.34,1.52,1.52,0,0,0,.15.95c0,.21.07.21.07.42l.15.82a5,5,0,0,1,.3,1.77,1.64,1.64,0,0,0,.14.48,1,1,0,0,1,.15.75,1.42,1.42,0,0,1,.07.35c.08.27.3.54.08.89v.13a1.12,1.12,0,0,1,.07,1c0,.21,0,.34.07.41,0,.34.15.62-.07.89v.21c0,.2.07.2.07.27A4.67,4.67,0,0,0,47.57,142.07Z" transform="translate(-6.56 -4.7)"></path><path class="cls-1" d="M49,106.78a3,3,0,0,0,.88-.18,2.16,2.16,0,0,1,1.11-.12,2.06,2.06,0,0,0,.73,0l2.07-.1a24.62,24.62,0,0,1,3.92.23,11.72,11.72,0,0,1,1.56.13l1.48.14a3.06,3.06,0,0,0,1,0,6.69,6.69,0,0,1,1,.09,15,15,0,0,1,1.77,0h.07a19.26,19.26,0,0,1,2.14-.16l1.18-.06a9.72,9.72,0,0,0,1.32-.06,4.45,4.45,0,0,1,1.93.12,6.06,6.06,0,0,1,1.56.26c.08,0,.16.06.23.06.52.18.84.58,1.35.49.09.33-.21.35-.42.56,0,.28.31.33.54.52.22,0,.45,0,.67,0a.61.61,0,0,1,.67.11A.27.27,0,0,1,76,109l.52.12a.5.5,0,0,1,.25.47c0,.07.08.13.23.26-.2.49-.2.42.33.73a.63.63,0,0,1-.42.51c-.22,0-.36.08-.59.09-.35.22-.42.43-.11.69a.83.83,0,0,1,.17.54c0,.34,0,.69.34.88a.72.72,0,0,1-.4.83,2.6,2.6,0,0,1-.8.52c-.14,0-.21.15-.2.35s-.13.42-.41.64a.38.38,0,0,1-.44.09.34.34,0,0,0-.37,0,.26.26,0,0,1-.22.08c-.51.1-.87.32-1.39.14a.92.92,0,0,0-.6,0c-.21.22-.43.16-.52-.18l-.21.15a.65.65,0,0,1-.89.11.35.35,0,0,0-.44,0,.7.7,0,0,1-.6-.11,3.51,3.51,0,0,0-.44-.12,2.62,2.62,0,0,0-1-.09c-.07,0-.07,0-.08-.06-.3-.26-.74-.17-1-.36a.32.32,0,0,1-.22-.06,1,1,0,0,0-.68-.31c-.08-.2.13-.28-.17-.47l-.14.21c-.21.21-.36.22-.51,0l-.46-.32c-.52,0-.66.1-.56.51l.16.47c.09.2.24.26.47.45a.52.52,0,0,1,.1.55c-.07.21,0,.27.23.33a.47.47,0,0,1,.39.32l.18.68c0,.21.08.2.31.4a2.41,2.41,0,0,1-.18,1v.14c.23.2,0,.41,0,.61a1.54,1.54,0,0,1-.26.84l-.18.89-.12.56a1.32,1.32,0,0,0-.11.69v.41a1.88,1.88,0,0,0,0,1.1c0,.2,0,.27-.06.34-.21.29-.12.49-.18.76a6.35,6.35,0,0,1-.11.9,2.8,2.8,0,0,0-.09,1.3l.37,1.49c.09.47.48.87.28,1.35,0,.08,0,.08.08.07a.8.8,0,0,1-.11.9.6.6,0,0,1,.18.67.49.49,0,0,0,.16.27.54.54,0,0,1,.17.4.69.69,0,0,0,0,.55v.13l-.17,1.18v.14c.24.46,0,.68,0,1.16l-.24,1.1-.12.76a4.58,4.58,0,0,1-.15,1.37,1.24,1.24,0,0,0,0,.7,1.06,1.06,0,0,1,0,.68c-.06.27,0,.55-.26.76-.14,0-.14.08,0,.21a6.63,6.63,0,0,1,0,1.78c-.06.21,0,.41,0,.69a4.42,4.42,0,0,1-.11.82,4.64,4.64,0,0,0,0,1.44,3.64,3.64,0,0,1-.35,2l-.47,1a.55.55,0,0,0,0,.48.83.83,0,0,1,.32.46c-.21.22-.44.09-.43.3s-.12.41-.12.48a14.25,14.25,0,0,0-1.69.14c-.67,0-1.26,0-1.85,0-.08,0-.08,0-.14.08-.51.23-.74,0-1.26,0a.73.73,0,0,0-.3-.12h-.22c-.21.21-.29.08-.52,0a.33.33,0,0,1-.37-.18.79.79,0,0,1,0-.62c.06-.28.12-.49.12-.56a16.83,16.83,0,0,0-.38-1.82c0-.21-.1-.48-.11-.69V147a3.91,3.91,0,0,1-.12-.89c0-.27-.1-.61-.11-.88,0-.48-.11-.68-.13-1.16a1.16,1.16,0,0,0-.09-.34v-.14c0-.61-.21-1.22-.17-1.84,0-.82,0-1.57,0-2.32a9.86,9.86,0,0,0-.2-2.66v-.28a6.15,6.15,0,0,0,0-2.05,7.11,7.11,0,0,1-.13-1.22l0-.62a10.27,10.27,0,0,1-.14-1.36c0-.21-.08-.2-.09-.4a8,8,0,0,0,0-1.38l0-1.16c0-.62-.06-1.23,0-1.84v-.41a.42.42,0,0,0,.06-.28,2.55,2.55,0,0,1,.09-1.1,8.89,8.89,0,0,0,.33-2.48,8.56,8.56,0,0,1,.1-1.1l.16-1.17a4.49,4.49,0,0,0,.25-1,6,6,0,0,0,.3-1.52,8.24,8.24,0,0,0,.09-1.31l.17-1,.19-.83a1.77,1.77,0,0,1,.31-1.11l.13-.48a1.24,1.24,0,0,1,.27-.56c.27-.49.11-.83-.49-.94a3.7,3.7,0,0,1-.74-.1c-.31-.19-.53-.18-.83-.37L55,110.4c-.52-.18-1-.09-1.48-.27a2.6,2.6,0,0,1-1.37-.69.39.39,0,0,0-.37-.19c-.23,0-.23-.06-.3-.06a3.1,3.1,0,0,1-1.23-.9c-.07,0-.15-.06-.22-.05l-.23-.2a6.86,6.86,0,0,0-.7-.72c-.23-.2-.23-.2-.24-.47C48.92,106.78,48.92,106.78,49,106.78Z" transform="translate(-6.56 -4.7)"></path><path class="cls-1" d="M162.4,121.73a2,2,0,0,1-.82-.12,9.9,9.9,0,0,1-2.37.06c-.13.13-.26.06-.37.09l-.12,0a2.28,2.28,0,0,1-.45.17l-1,.27-1.55.21-.08.06c-.29.21-.66.07-1,.28a1,1,0,0,1-.59.13c-.52.07-.66.28-1.18.28-.22.2-.66.07-.89.34,0,.07-.07.07-.14.07l-.52.14c-.22.2-.29.13-.51.2s-.3-.13-.37-.34c-.23-.48.15-.89.07-1.37.22-.2.08-.48.15-.68a1.61,1.61,0,0,0-.22-.75,3.29,3.29,0,0,1,.07-1,.26.26,0,0,0-.07-.21c0-.2-.08-.4-.08-.61s.08-.21.08-.28l-.15-2v-.13a5,5,0,0,0,0-1.44c0-.07.07-.2.07-.27-.07-.27.23-.48.15-.75a1.25,1.25,0,0,1,.08-.9v-.27c-.08-.2.07-.47.29-.82.07-.2.22-.27.37-.13a.5.5,0,0,0,.52-.07.52.52,0,0,1,.29-.14c.08-.07.22-.07.44-.07l1-.27a4.83,4.83,0,0,1,1.63-.62.09.09,0,0,0,.07,0,.1.1,0,0,1,.08,0c.38-.1.63-.48,1.08-.48.06-.13.25-.13.32-.26a2.65,2.65,0,0,1,1-.13c.32-.32.77-.38,1.15-.64a.22.22,0,0,1,.07-.19,1.07,1.07,0,0,1,.38-1.15c-.13-.13,0-.26-.13-.39-.13-.45.26-.64.38-1,.2-.07.2-.32.39-.38s.06-.39.19-.52-.06-.32,0-.42l0-.09L160,105l-.13-.06a6.33,6.33,0,0,0-3.73-.15l-.14,0-.14,0-.09,0-.64.12-.08.07-.81.27c-.22,0-.37.14-.58.21l-1.41.61c-.3.21-.74-.27-1-.06-.52.27-.3,1-.81.47,0-.06-.37.14-.44.07-.23-.2-.45.34-.74.28-.23-.21,0,0-.23,0s-.37,0-.44-.07a.35.35,0,0,0-.37,0,1,1,0,0,1-1.11,0,.39.39,0,0,0-.14.34c.07.21-.15.21-.15.41s.22-.14.22.07c-.07.48-.07-.14-.29.34a5.64,5.64,0,0,0-.3.82c0,.14,0,.21-.07.27l-.59,2.26a1.5,1.5,0,0,1-.15.48c-.22.48,0,1-.36,1.5a1.36,1.36,0,0,1-.23,1.1c-.07.2,0,.34-.07.54a2.09,2.09,0,0,1-.22.62c0,.21-.15.48-.08.69s-.15.4-.15.68a2.35,2.35,0,0,0-.21.75,1.61,1.61,0,0,0-.16.82c0,.14,0,.2-.07.27l-.59,1.58c-.07.48.08.88-.14,1.23V122c-.23.47-.08,1-.3,1.5-.07.07-.07.28-.07.55a.51.51,0,0,1-.07.34,1.94,1.94,0,0,0,0,.68c0,.14,0,.21-.08.21-.22.34-.08.68-.15,1s.23.34,0,.55a6.48,6.48,0,0,1-.07,1.09c-.22.47,0,.82,0,1.3,0,.27.22.54,0,.75v.21a.28.28,0,0,1,.07.33c-.07.08-.07.14-.07.28s.07.55.07.89v.82a11.2,11.2,0,0,0,.07,1.5v.07c-.22.35-.07.68-.07,1v1.43a.24.24,0,0,0,0,.41c.23.34.15.62.23.89L143,139a2.94,2.94,0,0,1,.3,1.51,5.76,5.76,0,0,1,.29,1.51c0,.06,0,.06.07.06.23.21.08.28.16.48a5.36,5.36,0,0,0,.14.55l.22.82.08.07c.07-.07.14,0,.14.2s0,.48.07.68a.83.83,0,0,0,.38.55c.22.21.07.41.14.62a1.47,1.47,0,0,1,.44.61c.23.62.81,1,1,1.57.37.28.58.9,1.18,1,.22,0,.22.14.44.14.07,0,.15.13.37.2l.44.14c.59.21,1.18.21,1.77.48a2.37,2.37,0,0,0,.67.21,4.44,4.44,0,0,1,1,0h.22c.22-.21.44-.14.74-.21s.5.14.57.07c.23-.2.68.13.9.06h0a5.48,5.48,0,0,0,2.42-.19c.52-.07.89-.21,1.26-.28l.37-.08.12,0a2.85,2.85,0,0,0,.35-.17.41.41,0,0,0,.11-.07c.1-.12.35-.05.42-.3.39-.2.9-.26,1.15-.71v-.13a1.37,1.37,0,0,0,.51-.13c0-.06.07-.12.2-.18.25-.52.38-1.16.95-1.42a.52.52,0,0,1-.06-.76,1.29,1.29,0,0,0-1-1.16c-.77,0-1.53-.25-2.3-.2h-.14a3.34,3.34,0,0,0-.43,0l-.13,0c-.3,0-.6.1-.9.15l-.16,0h0l-2.26.29-.42,0c-.51.08-.81.35-1.32.14-.08,0-.15,0-.15.07-.22.2-.37,0-.44,0l-.37-.28-.22-.75a.67.67,0,0,0-.15-.27c-.22-.21-.07-.21-.14-.41-.23-.34-.23-.68-.45-1-.22-.2-.15-.41-.22-.61a4.75,4.75,0,0,0-.22-1c-.08-.48-.15-.48-.08-.82s0-.27-.07-.34-.07-.14-.07-.34a16.58,16.58,0,0,1-.3-2.6.31.31,0,0,1,0-.35c.08-.06,0-.13-.07-.2,0-.27-.07-.62-.07-.89a2,2,0,0,0-.15-.75c-.08-.2-.3-.27-.08-.48-.07-.27.08-.55-.15-.82s-.14-.21,0-.21c.08-.2,0-.13,0-.34a1.28,1.28,0,0,1,.08-.61c0-.21.15-.28-.08-.48s.08-.55.38-.75.44-.14.66-.34.44-.08.66-.35h.23a10.75,10.75,0,0,1,1.39,0h.44a1.48,1.48,0,0,0,.6-.13c.07-.07.21.07.44-.14a6.12,6.12,0,0,0,.79-.43l.12-.06c.15,0,.21-.13.34-.13a.31.31,0,0,1,.13-.19c.25-.19.64,0,.89-.25a3.53,3.53,0,0,1,1.09-.52c.2.19.32-.12.52-.06,0-.06.06-.13.19-.19l.06-.13c.2-.07.32-.26.51-.19a1.83,1.83,0,0,1,.32-.39.25.25,0,0,0-.06-.19c.13-.06.13-.32.32-.26,0-.06,0-.12.07-.12-.2-.26-.07-.71.06-1-.13-.12,0-.32-.06-.45l.11,0,.1,0c.17-.09.36-.28.55-.41v-1c.13-.19.39-.19.58-.25s.19-.07.19-.13a1.43,1.43,0,0,1,.39-.71v-.13c.12-.06.19-.25.31-.31,0-.26.26-.39.39-.58-.06-.07-.2-.07-.34-.07Z" transform="translate(-6.56 -4.7)"></path><path class="cls-1" d="M141,146.52c-.11.24-.18.8-.24.86a3.8,3.8,0,0,1-2.64,3.53,5.28,5.28,0,0,1-.66.16c-1.13.23-2.4.22-3.42.46l-.46,0-.46-.09h-.38a21.41,21.41,0,0,1-2.87-.2l-2.93-.62-.24-.05c-.92-.41-1.94-.16-2.9-.41l-.52-.13c-1.08-.37-2.36-.18-3.26-.86a2.56,2.56,0,0,1-.46-.47,9,9,0,0,1-2-4.64,11.9,11.9,0,0,0-.77-1.47.71.71,0,0,1-.15-.47,1.93,1.93,0,0,0-.74-1.26c-.07-.2,0-.4-.22-.67l-.22-.53-.15-.14c-.22-.59-.22-1.19-.44-1.72-.07-.27.07-.6-.22-.8v-.07c0-.53.59-1.92.22-2.26-.07-.2-.22-.26-.22-.47s-.15-.73.07-.93a.49.49,0,0,0-.14-.6v-.13l.07.07c0-.2.07-.4.07-.6s0-.35,0-.53-.31-.63-.31-.94a18.94,18.94,0,0,0,0-5.47c0-.19,0-.39.07-.59s0-.29,0-.44a14.53,14.53,0,0,0,.12-1.62c.2-1.73.56-2.41.24-4.15v-.5c0-.93-.07-5.59.29-6.39-.26-2.42,0-5.29-.09-4.61.22-.54.83.22.83-.38.08.07.15.07.3.07a2.92,2.92,0,0,1,1.68,0c.15.06.65,0,.81.08,3.38-.92,4,3.22,3.57,5.67,0,.23-.37.71-.39.94s0,.26,0,.4,0,.38,0,.57,0,.33,0,.5l0,.51a7.94,7.94,0,0,1,.22,2.88c.19,0,.18,1.2.1,2-.06,1.18.07.75,0,1.92a4.2,4.2,0,0,1-.07.62c0,.21,0,.43,0,.65-.1,1.35-.2,2.75-.2,3V128a1.51,1.51,0,0,1,0,.52c0,.18-.09.36-.13.53a.86.86,0,0,0,0,.49,5.12,5.12,0,0,1,.51,3.37,2.74,2.74,0,0,0,0,.5,1.93,1.93,0,0,0,.13.47,2.74,2.74,0,0,1,.15.4,2.66,2.66,0,0,1,.15,1.26,6.43,6.43,0,0,1,.45.73,2.09,2.09,0,0,0,.29.6,3.45,3.45,0,0,1,.3,1.93v.73c0,.07,0,.07.06.14.52.33.52.86.75,1.4a3,3,0,0,0,1,1.86l.89,1.07.31.33a8.8,8.8,0,0,0,4.17,1.24l.64.07a8.6,8.6,0,0,0,2.67-.26,3.25,3.25,0,0,1,.54,0,9.07,9.07,0,0,0,1.95,0l.66,0a4.55,4.55,0,0,1,3.58.85C141,146.35,141.05,146.5,141,146.52Zm-23.13-33.73c.16-.15.27-.1.32-.24s.22-1.11.22-1.35l-.55-.07c.42.34.05.78-.11.93A3.71,3.71,0,0,1,117.86,112.79Zm-1.19,7.94c.06.13,0,.34.11.46.08-.08.22,0,.3-.16a.59.59,0,0,0-.17-.8c-.13-.09.17-.68,0-.68.17,0-1.11.33-.29.81A2.78,2.78,0,0,1,116.67,120.73Zm.5-9.27a18.72,18.72,0,0,1-.07-2c-.07,0-.07-.07-.14-.07h-.08a3.09,3.09,0,0,0-.51,1.77A3.64,3.64,0,0,1,117.17,111.46Zm1.22,12.61a1.67,1.67,0,0,0,1.15-.2c.23-.2.51-.84.24-.79-.36.56-2.61-1-1.49.87C118.38,124,118.38,124,118.39,124.07Zm4.47,12.09a.62.62,0,0,1-.38-.07v.34a.62.62,0,0,1,.38-.07Z" transform="translate(-6.56 -4.7)"></path><path class="cls-1" d="M81.41,108.27a13,13,0,0,0,1.53-.31,6.38,6.38,0,0,0,1.38,0h.15a1,1,0,0,0,.45-.16,12.12,12.12,0,0,0,1.46-.18,3.14,3.14,0,0,0,.86,0h.23l1.25.09h.13l1,.06H90a17,17,0,0,1,2.9.29c1.3.15,2.44,0,3.67,0A10.22,10.22,0,0,1,98,107.9a1.63,1.63,0,0,0,.76,0h.14c.86,0,1.71,0,2.56,0a.89.89,0,0,0,.72.07,2.16,2.16,0,0,0,1.3.35h.14c.42,0,.86.06,1.29.08a5.4,5.4,0,0,1,1.61-.1h.12l.58,0c.12,0,.26,0,.37-.1a.32.32,0,0,0,.15.18c-.06.07-.12.2-.17.27a1.34,1.34,0,0,0,0,.2c.2,0,.22.3.48.3l.1,0c.16.07.33.14.48,0a2,2,0,0,0,.67.33c.26.11.09.38.11.57s.07.12.14.18l-.11.14c0,.25,0,.58.3.62-.12.13-.23.33-.35.47s-.43.17-.69.19c-.3.22-.22.47,0,.69a.6.6,0,0,1,.06.11,4.73,4.73,0,0,1,.25,1.1c.19,0,.41.28.26.5a.45.45,0,0,1,0,.11,2.67,2.67,0,0,1-1.27.88.59.59,0,0,1-.46.64l-.14,0c-.17,0-.38-.07-.56,0a2.69,2.69,0,0,1-.57.17l-.14,0a2.24,2.24,0,0,1-1.15-.1c-.18.08-.45,0-.63.12-.14-.06-.15-.25-.28-.3l-.12,0-.12,0c-.17,0-.28.1-.42.11h-.1c-.14-.12-.32,0-.46-.16a3.11,3.11,0,0,1-1.36-.21c-.13,0-.21-.11-.33,0s-.13,0-.2-.11l-.19,0a1.51,1.51,0,0,0-.67-.27,1.69,1.69,0,0,1-.78-.13.26.26,0,0,0-.19.08c-.07-.12-.08-.25-.27-.23,0,.06-.06.13-.11.2a1.11,1.11,0,0,1-.66-.14c-.12.07-.31.08-.43.16-.24.28,0,.58-.13.84.12-.07.2.06.33,0,.22.37-.14.66-.24,1,.39.17.19.76.09,1.09a1.21,1.21,0,0,0,.18.69,1.7,1.7,0,0,0-.13.85l-.08.1a.22.22,0,0,0,0,.1c0,.06.07.06,0,.12l0,.12a5,5,0,0,1,.19,1.6,1.07,1.07,0,0,1,.11.63c0,.07,0,.14,0,.18s0,.08,0,.13,0,.27,0,.4,0,.2-.09.27a.41.41,0,0,0,0,.12,1.49,1.49,0,0,0,0,.3l0,.41a1.84,1.84,0,0,0,0,1.09c0,.2,0,.27,0,.35-.2.29-.11.49-.16.77a3.1,3.1,0,0,1,0,.64.5.5,0,0,1,0,.12c-.36,1,0,2,.12,3,.08.19.1.37.24.49a.16.16,0,0,0,0,.1.33.33,0,0,0,0,.1.48.48,0,0,1-.09.58c.36.36,0,.71-.16,1,.19.05,0,.2.08.32a.65.65,0,0,0,0,.41l0,.13a1.14,1.14,0,0,1,0,.87c.13.06,0,.26.15.31a8.29,8.29,0,0,0,0,1.22c.08.25.16.5.25.75a.65.65,0,0,0,0,.31v.11a11.64,11.64,0,0,1,.14,2.27.52.52,0,0,1-.11.26c0,.39-.19.79-.1,1.17s.43,1.25,0,1.67a1.45,1.45,0,0,1,.24.94v.13c0,.29,0,.58,0,.89s0,.41,0,.69a4,4,0,0,1-.06.7s0,.08,0,.13c-.11.82.09,1.64,0,2.55a2.15,2.15,0,0,1-.09.44c0,.07-.09.15-.07.22a11.06,11.06,0,0,1,.28,3.07c-.46,0-1.66.09-2.13.16l-.14,0a7.15,7.15,0,0,1-1.52-.08h-.42c-.35,0-.6.07-.92.09a1.85,1.85,0,0,0-.53-.15l-.21-.17c-.44,0-1.21,0-1.27-.6.05-.27,0-.46.07-.72a6.14,6.14,0,0,1-.66-1.83l0-.11a4,4,0,0,1,0-.7c-.07-.05-.08-.18-.09-.25a5.37,5.37,0,0,0,0-2.15l0-.14a9,9,0,0,0-.46-2c0-.33-.11-.57,0-.9,0-.46-.1-.91-.17-1.35,0,0,0-.1,0-.15a10.32,10.32,0,0,1,0-2.08,12,12,0,0,0-.24-1.46c0-.13-.09-.25,0-.32a1,1,0,0,0,0-.38.35.35,0,0,0,0-.14,6.69,6.69,0,0,1-.27-1.66.57.57,0,0,0,0-.13,5,5,0,0,1,.05-1.27,10.82,10.82,0,0,1-.3-2c.07-.61.13-1.22.15-1.85v-.14a19,19,0,0,0-.08-2.83,12.47,12.47,0,0,1,.26-1.44,5.34,5.34,0,0,0-.05-.69.51.51,0,0,0,0-.13,14.14,14.14,0,0,1,.13-4.06c0-.78.13-1.49.1-2.29,0,0,0-.08,0-.12a4.75,4.75,0,0,0,0-.65l.14-1s.08-.48.13-.71a.59.59,0,0,0,0-.13c0-.3-.08-.74.09-1a3.22,3.22,0,0,0-.15-.63l0-.12a1.47,1.47,0,0,1,0-.59s0-.07-.09-.1-.3,0-.32-.18a.23.23,0,0,1-.27,0L89,112.6a.31.31,0,0,1-.13.06l-.13,0a4.71,4.71,0,0,1-2.45-.33c-.26,0-.59-.08-.84-.06-.07,0-.14,0-.21-.11a4.17,4.17,0,0,1-1.5-.2l0,.07c-.2-.11-.45,0-.65-.14s-.41-.23-.49-.47a.26.26,0,0,1-.13-.06c-.15-.18-.29-.36-.12-.57,0,0-.06-.06-.09,0s0,0,0-.06v-.13c0-.06-.07-.06-.14-.12-.15-.31-.11-.63-.32-.87a1.37,1.37,0,0,1,0-.19c0-.07-.15-.19-.15-.25-.09-.25-.23-.5-.32-.75a.36.36,0,0,0,.1-.14Z" transform="translate(-6.56 -4.7)"></path><text x="-6.56" y="-4.7"></text><rect class="cls-1" x="181.12" y="122.54" width="33.45" height="19.58"></rect><rect class="cls-2" x="181.12" y="102.96" width="33.45" height="19.58"></rect><rect class="cls-2" x="181.12" y="142.12" width="33.45" height="19.58"></rect><rect class="cls-3" x="181.12" y="161.71" width="33.45" height="19.35"></rect><rect class="cls-3" x="181.12" y="161.71" width="33.45" height="19.35"></rect><rect class="cls-3" x="239.55" y="161.72" width="33.45" height="19.34"></rect><rect class="cls-1" x="239.55" y="122.53" width="33.45" height="19.59"></rect><rect class="cls-2" x="239.55" y="101.21" width="33.45" height="21.32"></rect><rect class="cls-2" x="239.55" y="142.12" width="33.45" height="19.59"></rect><path class="cls-2" d="M280.26,31.68a29.7,29.7,0,0,0,6.28-5.75c2.46-3.06,4.27-7.64,3.7-10.91-.51-2.88-2.67-5.95-6-8.1A13.18,13.18,0,0,0,274.14,5c-3.62.87-9,4.88-12.59,10.66-.24.38-.51.83-.72,1.2L228,20.6h0l-32.81,3.73c-.3-.32-.65-.7-1-1-4.83-4.83-10.92-7.54-14.65-7.57a13.14,13.14,0,0,0-9.38,4.11c-2.8,2.84-4.23,6.32-4.08,9.24.17,3.31,3,7.37,6,9.81a30,30,0,0,0,7.4,4.2h0a53.86,53.86,0,0,0-5.39,17.12l7.18-.82,5.34,48.9L287.82,96.83c1.58-2.72.64-30.5-2.59-49.21l4.1-.47A54,54,0,0,0,280.26,31.68Z" transform="translate(-6.56 -4.7)"></path><path class="cls-3" d="M186.69,108.3a39.86,39.86,0,0,0,24.21,12.29l.06.06c5.2,5.43,16.91,11.06,29.42,9.65h0c12.5-1.42,22.66-9.54,26.53-16l0-.07a39.89,39.89,0,0,0,20.86-17.4Z" transform="translate(-6.56 -4.7)"></path><polygon class="cls-4" points="248 95.9 221.46 15.9 213.39 99.83 248 95.9"></polygon><polygon points="248 95.9 231.17 97.81 231.17 97.81 213.39 99.83 232.12 110.41 248 95.9"></polygon><path class="cls-1" d="M194.56,57.9l-20.39,2.32a67.57,67.57,0,0,0-.31,16.53l22.54-2.56Z" transform="translate(-6.56 -4.7)"></path><path class="cls-1" d="M198.24,90.52l-20.82,2.33a44.88,44.88,0,0,0,9.27,15.45l13.38-1.52Z" transform="translate(-6.56 -4.7)"></path><path class="cls-3" d="M196.4,74.26v-.07l-22.54,2.56c.08.71.16,1.43.25,2.15a64.66,64.66,0,0,0,3.31,13.95l20.81-2.36Z" transform="translate(-6.56 -4.7)"></path><path class="cls-1" d="M270.64,65.77,293.3,63.2a67.13,67.13,0,0,0-4-16.05L268.8,49.48Z" transform="translate(-6.56 -4.7)"></path><path class="cls-1" d="M274.31,98.36l13.51-1.53a44.83,44.83,0,0,0,5.6-17.14l-20.95,2.38Z" transform="translate(-6.56 -4.7)"></path><path class="cls-3" d="M272.47,82.07l20.95-2.38a64.78,64.78,0,0,0,.12-14.34c-.07-.72-.15-1.44-.24-2.15l-22.66,2.57Z" transform="translate(-6.56 -4.7)"></path><path class="cls-3" d="M263.7,58.31a8.13,8.13,0,1,1-9-7.2A8.15,8.15,0,0,1,263.7,58.31Z" transform="translate(-6.56 -4.7)"></path><path class="cls-1" d="M263.71,58.38a4.34,4.34,0,1,1-4.81-3.85A4.37,4.37,0,0,1,263.71,58.38Z" transform="translate(-6.56 -4.7)"></path><path class="cls-3" d="M217.7,63.53a8.13,8.13,0,1,1-9-7.2A8.17,8.17,0,0,1,217.7,63.53Z" transform="translate(-6.56 -4.7)"></path><path class="cls-1" d="M217.7,63.52a4.34,4.34,0,1,1-4.8-3.85A4.36,4.36,0,0,1,217.7,63.52Z" transform="translate(-6.56 -4.7)"></path><text x="-6.56" y="-4.7"></text></svg> 