<?xml version="1.0" encoding="UTF-8"?> <svg xmlns="http://www.w3.org/2000/svg" width="75" height="64" viewBox="0 0 75 64" fill="none"><g clip-path="url(#clip0_1502_3255)"><path d="M6.05212 55.8988C2.71631 55.8988 0 53.1825 0 49.8467V37.1229C0 33.7871 2.71631 31.0708 6.05212 31.0708C9.38794 31.0708 12.1042 33.7871 12.1042 37.1229V49.8467C12.1042 53.1825 9.38794 55.8988 6.05212 55.8988ZM6.05212 33.4535C4.05063 33.4535 2.38273 35.1214 2.38273 37.1229V49.8467C2.38273 51.8482 4.05063 53.5161 6.05212 53.5161C8.05361 53.5161 9.72152 51.8482 9.72152 49.8467V37.1229C9.72152 35.1214 8.05361 33.4535 6.05212 33.4535Z" fill="#48BAC4"></path><path d="M68.8129 55.8988C65.477 55.8988 62.7607 53.1825 62.7607 49.8467V37.1229C62.7607 33.7871 65.477 31.0708 68.8129 31.0708C72.1487 31.0708 74.865 33.7871 74.865 37.1229V49.8467C74.865 53.1825 72.1487 55.8988 68.8129 55.8988ZM68.8129 33.4535C66.8114 33.4535 65.1435 35.1214 65.1435 37.1229V49.8467C65.1435 51.8482 66.8114 53.5161 68.8129 53.5161C70.8144 53.5161 72.4823 51.8482 72.4823 49.8467V37.1229C72.4823 35.1214 70.8144 33.4535 68.8129 33.4535Z" fill="#48BAC4"></path><path d="M69.0994 33.3105C68.4322 33.3105 67.908 32.7863 67.908 32.1191C67.908 15.4401 54.5171 2.38273 37.4568 2.38273C20.3965 2.38273 6.95792 15.4401 6.95792 32.1191C6.95792 32.7863 6.43372 33.3105 5.76656 33.3105C5.0994 33.3105 4.5752 32.7863 4.5752 32.1191C4.5752 14.1057 19.0145 0 37.4568 0C55.8991 0 70.2908 14.1057 70.2908 32.1191C70.2908 32.7863 69.7666 33.3105 69.0994 33.3105Z" fill="#48BAC4"></path><path d="M66.1921 59.2823H48.6552C47.9881 59.2823 47.4639 58.7581 47.4639 58.0909C47.4639 57.4237 47.9881 56.8995 48.6552 56.8995H66.1921C67.0975 56.8995 68.003 55.9465 68.003 54.9934C68.003 54.3262 68.5272 53.802 69.1943 53.802C69.8615 53.802 70.3857 54.3262 70.3857 54.9934C70.3857 57.2808 68.4319 59.2823 66.1921 59.2823Z" fill="#48BAC4"></path><path d="M44.2236 64.0001H33.6443C30.7374 64.0001 28.4023 61.665 28.4023 58.7581V57.5191C28.4023 54.6122 30.7374 52.2771 33.6443 52.2771H44.2236C47.1306 52.2771 49.4656 54.6122 49.4656 57.5191V58.7581C49.4656 61.665 47.1306 64.0001 44.2236 64.0001ZM33.6443 54.6598C32.0717 54.6598 30.7851 55.9465 30.7851 57.5191V58.7581C30.7851 60.3307 32.0717 61.6174 33.6443 61.6174H44.2236C45.7962 61.6174 47.0829 60.3307 47.0829 58.7581V57.5191C47.0829 55.9465 45.7962 54.6598 44.2236 54.6598H33.6443Z" fill="#48BAC4"></path></g><defs><clipPath id="clip0_1502_3255"><rect width="74.8652" height="64" fill="white"></rect></clipPath></defs></svg> 