<?xml version="1.0" encoding="UTF-8"?> <svg xmlns="http://www.w3.org/2000/svg" id="Layer_2" viewBox="0 0 125 51.8"><defs><style>.cls-2{fill:#23bced}.cls-3{fill:#145faa}.cls-4{fill:#0b3064}</style></defs><g id="Layer_1-2"><circle cx="75.94" cy="27.56" r="7.89" fill="#fff"></circle><path class="cls-2" d="M76.25 22.16a1.14 1.14 0 00-1.2 1.07c-.03.63.44 1.16 1.07 1.2.63.03 1.16-.44 1.2-1.07a1.14 1.14 0 00-1.07-1.2z"></path><path class="cls-2" d="M76.26 18.97c-4.74-.23-8.77 3.42-9 8.15-.23 4.74 3.42 8.77 8.15 9 4.74.23 8.77-3.42 9-8.15a8.593 8.593 0 00-8.15-9zm.58 11.14l-.21 3.85c-.03.57-.52 1.01-1.09.98h-.02c-.57-.04-.99-.55-.95-1.12l.21-3.79c.01-.18.07-.35.16-.5.19-.31.53-.52.92-.51h.02c.53.03.95.46.98.98v.11zm4.73-6.39c-.02.35-.32.62-.67.6l-1.83-.1c-.17 0-.3-.16-.29-.33v-.1l-.55-.03c-.13.54-.46 1-.91 1.29 1.03.63 1.72 1.91 1.93 3.14.17.98.26 1.91.29 2.69.06 1.17-.91 2.14-2.09 2.07h-.18l.16-2.83c.05-.89-.64-1.66-1.53-1.71h-.03c-.88-.03-1.63.67-1.68 1.57l-.15 2.79h-.18a2.002 2.002 0 01-1.85-2.31c.15-.96.41-2.14.81-3.35.33-.99 1.06-1.82 2.02-2.22-.41-.34-.68-.82-.74-1.37l-.55-.03v.09c-.02.17-.16.3-.33.29l-1.83-.1a.637.637 0 01-.6-.67v-.24c.03-.35.33-.62.69-.6l1.83.1c.17 0 .3.16.29.33v.14l.54.03c.21-1 1.12-1.73 2.17-1.67 1.05.06 1.88.88 1.97 1.9l.55.03v-.14c.02-.17.16-.3.33-.29l1.83.1c.35.02.62.32.6.67v.24z"></path><path class="cls-3" d="M59 4.96l2.96.03.08 10.55 5.13-.05-.09-10.43 3.31.03.1-3.81-11.48-.17L59 4.96zM77.04 1.74l-5.13-.32-1.12 14.3 9.03.76.4-3.92-4.03-.36.85-10.46zM91.64 14.37l-5.3-.5.18-2.12 5.07.59.36-3.07-5.16-.58.17-2.04 5.57.63.38-3.66-10.53-1.13-1.44 14.11 10.33 1.08.37-3.31zM40.52 16.63l-.42-3.92-4.02.49-1.32-10.41-5.09.74 1.86 14.22 8.99-1.12zM58.3 4.87l-.14-3.81-11.47.57.24 3.84 3.34-.18.74 10.52 5.13-.36-.76-10.41 2.92-.17zM42.72 6.98c-.79.01-1.52-.23-2.11-.66l1.12 10.13 4.93-.44-1.05-10.63a3.53 3.53 0 01-2.89 1.59zM42.69 5.44c1.5-.03 2.7-1.27 2.67-2.77-.03-1.5-1.27-2.7-2.77-2.67-1.5.03-2.7 1.27-2.67 2.77.03 1.5 1.27 2.7 2.77 2.67zM109.69 23.83l-11.75-1.65-.49 3.84 3.32.45-1.24 10.5 5.1.6 1.21-10.4 3.28.44.57-3.78zM115.89 28.34c1.26.25 2.55 1.12 3.1 2.45l3.2-.83c-.64-2.45-2.71-4.32-5.63-4.9-3.99-.79-6.39.63-6.91 3.29-1.08 5.45 6.73 5.12 6.31 7.26-.13.65-.75 1.03-1.54.88-1.44-.29-2.85-1.35-3.49-2.83l-3.14 1.26c.82 2.41 2.87 4.06 5.89 4.65 4.4.87 6.6-.55 7.11-3.14 1.13-5.72-6.8-5.17-6.39-7.22.12-.63.71-1.02 1.5-.87zM33.57 25.68c-.06-.64.39-1.18 1.2-1.25 1.28-.11 2.77.36 3.66 1.48l2.84-1.69c-1.3-2.17-3.81-3.39-6.78-3.13-4.05.36-5.96 2.39-5.72 5.09.49 5.53 7.9 3.03 8.09 5.21.06.66-.43 1.2-1.24 1.27-1.47.13-3.11-.5-4.14-1.74L28.82 33c1.46 2.09 3.89 3.09 6.95 2.82 4.47-.4 6.18-2.38 5.95-5-.52-5.81-7.97-3.06-8.16-5.15zM47.41 24.73c-.03-.64.45-1.16 1.26-1.2 1.29-.06 2.75.49 3.59 1.65l2.91-1.57c-1.2-2.23-3.66-3.56-6.63-3.43-4.06.18-6.06 2.13-5.94 4.83.24 5.55 7.75 3.38 7.85 5.57.03.66-.48 1.18-1.29 1.22-1.47.07-3.08-.64-4.06-1.92l-2.75 1.96c1.36 2.15 3.75 3.26 6.82 3.12 4.48-.2 6.28-2.1 6.16-4.73-.26-5.83-7.83-3.41-7.92-5.51zM13.72 28.48c-.64-3.27-3.2-4.68-7.32-3.88-2.28.44-4.83 1.11-6.4 1.57l3.08 14.07 4.97-.93-.88-4.21c.65-.13 1.37-.29 2.03-.45 3.25-.82 5.17-2.79 4.51-6.17zm-5.78 2.85c-.41.12-1 .27-1.5.37l-.72-3.04c.4-.14.93-.31 1.56-.44 1.03-.2 1.76.26 1.94 1.21.2 1.01-.3 1.62-1.28 1.9zM16.46 23.14L13.05 37.9l5.25-.33.36-2.43 4.16-.68 1.09 2.35 5.6-1.12-7.67-13.36-5.39.79zm2.57 8.48l.65-4.07 1.69 3.7-2.34.37zM62.93 19.53c-2.32.01-4.95.2-6.58.35l.42 14.4h5.06l-.08-4.3c.66 0 1.4-.03 2.08-.07.69-.04 1.33-.15 1.92-.31-.12-.62-.18-1.27-.18-1.92 0-2.52.9-4.82 2.4-6.61-1.09-1.02-2.78-1.55-5.04-1.54zm.26 6.9c-.42.04-1.03.08-1.54.08l-.15-3.13c.42-.06.97-.14 1.62-.14 1.05 0 1.68.58 1.68 1.55 0 1.03-.6 1.53-1.61 1.63zM96.48 27.13c.32-3.29-1.79-5.44-5.9-5.85-2.62-.26-5.21-.44-6.92-.53v.19c1.55 1.81 2.5 4.17 2.5 6.75 0 2.91-1.21 5.54-3.15 7.41l4.47.49.36-4.23c.29.05.71.11 1.08.14l2.14 4.61 5.68-.09-2.97-5.17c1.39-.57 2.49-1.64 2.69-3.71zm-4.77-.21c-.1 1.06-.78 1.53-1.94 1.45-.57-.04-1.19-.12-1.72-.19l.21-3.27c.48.03 1.18.06 1.71.11 1.21.12 1.84.86 1.74 1.89zM124.27 27.1s.07-.07.09-.12c.02-.05.03-.11.03-.17 0-.11-.04-.2-.11-.27s-.2-.1-.38-.1h-.61v1.39h.17v-.64h.31l.4.64h.2l-.42-.64c.06 0 .12-.01.17-.02.05-.01.1-.04.14-.07zm-.39-.04h-.42v-.49h.52c.04 0 .08.02.11.03.03.02.06.04.08.07.02.03.03.07.03.13 0 .07-.02.12-.05.16-.03.04-.07.06-.12.07-.05.01-.1.02-.16.02z"></path><path class="cls-3" d="M124.9 26.66c-.06-.15-.15-.28-.27-.39-.11-.11-.24-.2-.4-.27-.15-.07-.31-.1-.48-.1s-.33.03-.49.1c-.15.07-.28.15-.4.27-.11.11-.2.24-.27.39-.07.15-.1.31-.1.48s.03.33.1.49c.07.15.15.28.27.4.11.11.24.2.4.27.15.07.31.1.49.1s.33-.03.48-.1c.15-.07.28-.15.4-.27.11-.11.2-.24.27-.4.06-.15.1-.31.1-.49s-.03-.33-.1-.48zm-.18.91a.87.87 0 01-.22.34.984.984 0 01-.75.31c-.15 0-.29-.03-.42-.08a.979.979 0 01-.33-.23c-.09-.1-.17-.21-.22-.34a1.176 1.176 0 010-.85c.05-.13.13-.25.22-.34a.984.984 0 01.75-.31c.15 0 .29.03.42.08.13.06.24.13.33.23.09.1.16.21.22.34a1.162 1.162 0 010 .85z"></path><path class="cls-4" d="M30.93 43.33h2.85c.48 0 .9.08 1.26.23.35.16.63.37.83.65.2.28.29.6.29.97 0 .34-.09.63-.28.88-.18.25-.45.45-.79.59-.35.14-.75.21-1.21.21l.25-.55c.5 0 .94.08 1.31.24.37.16.65.39.86.69.2.3.3.64.3 1.03s-.1.75-.31 1.05c-.2.3-.49.54-.86.71s-.8.25-1.29.25h-3.2v-6.96zm2.76 2.73c.13 0 .24-.03.33-.08.09-.06.17-.13.22-.22.06-.09.09-.2.09-.33s-.03-.24-.09-.33a.661.661 0 00-.22-.22.578.578 0 00-.33-.08h-.92v1.27h.92zm.34 2.78c.13 0 .25-.03.36-.09s.2-.15.26-.25c.06-.11.09-.22.09-.36s-.03-.26-.09-.37a.603.603 0 00-.25-.25.746.746 0 00-.37-.08h-1.26v1.41h1.26zM40.9 47.37h-1.75l-2.56-4.05h2.15l2.16 3.74h-1.58l2.16-3.74h2.01l-2.58 4.05zm-1.8 2.91v-3.15h1.86v3.15H39.1zM53.41 46.63v-.02c.65-.17 1.13-.44 1.45-.82.32-.36.49-.82.49-1.37 0-.75-.3-1.31-.9-1.68-.6-.36-1.5-.55-2.71-.55h-4.43a.28.28 0 00-.28.28v8.74c0 .16.13.28.28.28h4.55c1.24 0 2.19-.22 2.85-.67.66-.46 1-1.11 1-1.95 0-.59-.2-1.07-.59-1.45-.39-.38-.96-.64-1.72-.78zm-3.7-2.5h1.33c.48 0 .81.08 1.02.21.21.13.32.33.32.65s-.11.63-.32.77c-.21.14-.52.21-.97.21h-1.38v-1.84zm2.65 5.18c-.22.16-.56.22-1.02.22H49.7v-1.81h1.63c.48 0 .83.08 1.05.21.21.14.32.4.32.68 0 .32-.11.56-.33.7zM90.86 42.18h-2.22a.28.28 0 00-.28.28v4.29l-2.84-4.37a.433.433 0 00-.36-.2h-2.29a.28.28 0 00-.28.28v8.74c0 .16.13.28.28.28h2.2c.16 0 .28-.13.28-.28v-4.39l2.85 4.47c.08.13.21.21.36.21h2.29c.16 0 .28-.13.28-.28v-8.74a.28.28 0 00-.28-.28zM65.2 42.18h-7.84a.28.28 0 00-.28.28v8.74c0 .16.13.28.28.28h7.84c.16 0 .28-.13.28-.28v-1.53a.28.28 0 00-.28-.28h-5.44v-1.66h4.25c.16 0 .28-.13.28-.28v-1.19a.28.28 0 00-.28-.28h-4.25v-1.69h5.44c.16 0 .28-.13.28-.28v-1.54a.28.28 0 00-.28-.28zM76.01 47.02a.28.28 0 00-.27-.21h-4.01c-.35 0-.51.45-.24.72l1.03 1.15a2.265 2.265 0 01-3.61-2.34c.24-.96 1.09-1.63 2.08-1.68.64-.03 1.27.19 1.79.74.15.16.4.2.59.08.88-.56 1.04-.66 1.61-1.02.14-.09.17-.27.08-.4a4.872 4.872 0 00-8.83 2.85c0 2.7 2.18 4.88 4.87 4.88 1.29 0 2.47-.5 3.34-1.33l.91.91c.24.24.66.07.66-.27v-4.04s0-.04-.01-.05z"></path><rect class="cls-4" x="77.6" y="46.82" width="3.43" height="4.68" rx=".28" ry=".28"></rect><path class="cls-4" d="M79.28 42.18c-.97 0-1.74.75-1.74 1.77s.78 1.81 1.74 1.81 1.76-.81 1.76-1.81-.78-1.77-1.76-1.77z"></path></g></svg> 