<?xml version="1.0" encoding="UTF-8"?> <svg xmlns="http://www.w3.org/2000/svg" width="46" height="64" viewBox="0 0 46 64" fill="none"><g clip-path="url(#clip0_1502_3306)"><path d="M42.994 41.8646C41.8425 40.7243 39.9154 38.8164 40.0367 38.024C40.7909 33.0847 40.1747 28.7997 38.2039 25.2869C36.7359 22.6685 34.5036 20.5305 31.6956 19.0244C32.1659 18.6304 32.4666 18.0401 32.4666 17.379V2.14362C32.4666 0.961824 31.5048 0 30.323 0H11.9406C10.7588 0 9.79701 0.961824 9.79701 2.14362V6.29394H6.19438C5.01258 6.29394 4.05076 7.25577 4.05076 8.43756V23.4205C1.44475 26.2891 -1.18708 31.1734 0.571584 38.4224C1.10132 40.6065 2.06314 42.6345 3.0822 44.7826C5.2651 49.3852 7.5232 54.145 5.34479 60.7127C5.10461 61.4389 5.22133 62.2122 5.66689 62.835C6.11133 63.4557 6.8038 63.8159 7.56809 63.8238L25.4746 63.9989C25.4847 63.9989 25.4937 63.9989 25.5038 63.9989C26.515 63.9989 27.4073 63.367 27.7305 62.4209C28.1727 61.1314 29.2119 59.9047 29.9875 59.054C31.7753 59.8216 33.4857 59.9765 34.7203 59.9765C35.2264 59.9765 35.6529 59.9507 35.9716 59.9316C36.1187 59.9226 36.2466 59.9148 36.3184 59.9137C37.0513 59.9137 37.627 59.697 38.0322 59.2694C38.7471 58.513 38.6843 57.3727 38.6383 56.54C38.627 56.3469 38.6169 56.164 38.6214 56.0338C38.6472 55.1528 39.5832 52.9935 40.2645 51.6276C42.2521 51.4144 42.8503 51.0451 43.0882 50.5625C43.3217 50.0844 43.0164 49.6411 42.4597 48.8375C42.1859 48.4413 41.5731 47.5558 41.4979 47.1664C41.7504 47.0104 42.3756 46.7803 42.8065 46.6221C44.1645 46.1238 45.0063 45.7826 45.2016 45.1002C45.426 44.3168 44.6438 43.4976 42.9962 41.8657L42.994 41.8646ZM11.1202 2.14362C11.1202 1.69133 11.4883 1.32321 11.9406 1.32321H30.323C30.7753 1.32321 31.1434 1.69133 31.1434 2.14362V17.379C31.1434 17.8313 30.7753 18.1995 30.323 18.1995H29.8236C29.8236 18.1995 29.8214 18.1995 29.8202 18.1995H26.7193V8.43869C26.7193 7.25689 25.7574 6.29506 24.5757 6.29506H11.1202V2.14362ZM6.19326 7.61827H24.5757C25.0279 7.61827 25.3961 7.98639 25.3961 8.43869V23.673C25.3961 24.1253 25.0279 24.4934 24.5757 24.4934H15.0831C14.834 24.4934 14.6039 24.6056 14.4501 24.802L9.88904 30.6257V25.297C9.88904 24.8537 9.52878 24.4934 9.08546 24.4934H6.19438C5.74209 24.4934 5.37397 24.1253 5.37397 23.673V23.6606C5.37397 23.6606 5.37397 23.6573 5.37397 23.655V8.43869C5.37397 7.98639 5.74209 7.61827 6.19438 7.61827H6.19326ZM42.3475 45.3797C41.1736 45.8106 40.398 46.0957 40.2151 46.7164C39.9828 47.5009 40.5462 48.4021 41.3677 49.5906C41.4631 49.7286 41.5765 49.8936 41.6707 50.0362C41.2937 50.1596 40.6214 50.2674 39.7875 50.3459C39.7729 50.3459 39.7572 50.3482 39.7426 50.3504C38.8088 50.4357 37.6787 50.484 36.535 50.475C36.1658 50.4716 35.8706 50.7657 35.8684 51.1315C35.865 51.4974 36.1591 51.7959 36.5249 51.7982C36.535 51.7982 36.5822 51.7982 36.6607 51.7982C36.9761 51.7982 37.7932 51.7926 38.7337 51.7443C38.1601 52.9598 37.3263 54.9081 37.2937 55.9957C37.2881 56.182 37.3005 56.3918 37.3128 56.614C37.3453 57.2066 37.3902 58.0192 37.067 58.3615C36.9222 58.5141 36.6697 58.5916 36.3061 58.5916C36.195 58.5927 36.0592 58.6005 35.8886 58.6118C34.1557 58.715 28.8842 59.0315 25.579 53.1854C25.3994 52.8666 24.9954 52.7555 24.6767 52.9351C24.359 53.1147 24.2468 53.5187 24.4264 53.8374C25.698 56.0854 27.2243 57.522 28.7608 58.4344C27.946 59.3502 26.9505 60.6028 26.4735 61.9944C26.3321 62.4086 25.9359 62.6779 25.4847 62.6779L7.57707 62.5028C7.24038 62.4995 6.93623 62.3412 6.73983 62.0685C6.54342 61.7946 6.49179 61.4535 6.59841 61.1336C8.94293 54.063 6.46261 48.833 4.27522 44.2203C3.28646 42.1362 2.3527 40.1676 1.85551 38.1161C0.636679 33.0903 1.54463 28.5652 4.47724 24.958C4.86893 25.481 5.49069 25.8211 6.19214 25.8211H8.56359V32.1375C8.56359 32.4798 8.78132 32.7851 9.10566 32.8973C9.19208 32.9265 9.27962 32.9411 9.36716 32.9411C9.60958 32.9411 9.84527 32.8311 10.0001 32.6324L15.3345 25.8211H24.5745C25.7563 25.8211 26.7181 24.8593 26.7181 23.6775V19.5272H29.6867C33.8931 21.3285 40.5204 26.0781 38.7258 37.8287C38.5036 39.2878 40.3116 41.079 42.0602 42.8107C42.7179 43.4616 43.5899 44.3258 43.8469 44.7478C43.5372 44.9465 42.8088 45.2147 42.3453 45.3842L42.3475 45.3797Z" fill="#48BAC4"></path><path d="M9.63775 13.2286H21.1314C21.4973 13.2286 21.7935 12.9323 21.7935 12.5665C21.7935 12.2006 21.4973 11.9043 21.1314 11.9043H9.63775C9.27188 11.9043 8.97559 12.2006 8.97559 12.5665C8.97559 12.9323 9.27188 13.2286 9.63775 13.2286Z" fill="#48BAC4"></path><path d="M10.0479 16.3756H17.6426C18.0085 16.3756 18.3048 16.0793 18.3048 15.7134C18.3048 15.3476 18.0085 15.0513 17.6426 15.0513H10.0479C9.68203 15.0513 9.38574 15.3476 9.38574 15.7134C9.38574 16.0793 9.68203 16.3756 10.0479 16.3756Z" fill="#48BAC4"></path><path d="M20.7896 18.3364H10.0479C9.68203 18.3364 9.38574 18.6327 9.38574 18.9986C9.38574 19.3645 9.68203 19.6608 10.0479 19.6608H20.7896C21.1555 19.6608 21.4517 19.3645 21.4517 18.9986C21.4517 18.6327 21.1555 18.3364 20.7896 18.3364Z" fill="#48BAC4"></path></g><defs><clipPath id="clip0_1502_3306"><rect width="45.2371" height="64" fill="white"></rect></clipPath></defs></svg> 