<?xml version="1.0" encoding="UTF-8"?> <svg xmlns="http://www.w3.org/2000/svg" width="79" height="64" viewBox="0 0 79 64" fill="none"><g clip-path="url(#clip0_1502_3286)"><path d="M70.4422 50.2757C70.1621 50.2757 69.882 50.1823 69.6486 49.9489L58.6785 39.4923H55.2708C54.6172 39.4923 54.1037 38.9788 54.1037 38.3253C54.1037 37.6718 54.6172 37.1583 55.2708 37.1583H59.1453C59.4254 37.1583 59.7522 37.2516 59.9389 37.485L69.2751 46.4012V36.0846C69.2751 35.5244 69.6953 35.0109 70.2554 34.9176C74.13 34.3107 76.0439 31.93 76.0439 27.682V7.18891C76.0439 3.17433 75.2037 2.33406 71.0023 2.33406H41.8732C39.119 2.33406 32.7237 2.80088 32.7237 7.18891V27.7287C32.7237 31.8833 37.8586 37.1583 41.8732 37.1583H48.4553C49.1088 37.1583 49.6223 37.6718 49.6223 38.3253C49.6223 38.9788 49.1088 39.4923 48.4553 39.4923H41.8732C36.5983 39.4923 30.3896 33.097 30.3896 27.7287V7.18891C30.3896 2.70751 34.6843 0 41.8732 0H71.0023C76.4174 0 78.378 1.86725 78.378 7.18891V27.7287C78.378 32.8169 76.0439 36.0379 71.6092 37.0649V49.1087C71.6092 49.5755 71.3291 49.9956 70.909 50.1824C70.7689 50.229 70.5822 50.2757 70.4422 50.2757Z" fill="#48BAC4"></path><path d="M7.93581 64C7.93581 64 7.56236 64 7.42232 63.86C7.04887 63.6733 6.76878 63.2531 6.76878 62.833V50.7892C2.33406 49.7156 0 46.5412 0 41.453V20.9132C0 16.2918 4.15463 13.5376 11.0635 13.5376H26.515C27.1685 13.5376 27.682 14.0511 27.682 14.7046C27.682 15.3582 27.1685 15.8717 26.515 15.8717H11.0635C8.44931 15.8717 2.33406 16.3385 2.33406 20.9132V41.453C2.33406 45.701 4.20131 48.0817 8.12254 48.6886C8.68271 48.7819 9.10285 49.2488 9.10285 49.8556V60.5923L22.267 50.976C22.267 50.976 22.6871 50.7426 22.9672 50.7426H40.1926C44.1605 50.7426 47.3348 45.6543 47.3348 41.4997V20.9599C47.3348 18.6259 46.5412 15.9183 40.1926 15.9183H33.2837C32.6302 15.9183 32.1167 15.4048 32.1167 14.7513C32.1167 14.0978 32.6302 13.5843 33.2837 13.5843H40.1926C48.035 13.5843 49.6689 17.5989 49.6689 20.9599V41.4997C49.6689 46.9614 45.6076 53.0766 40.1926 53.0766H23.3406L8.63603 63.8133C8.63603 63.8133 8.16922 64.0467 7.93581 64.0467V64Z" fill="#48BAC4"></path><path d="M66.4739 11.0167H53.5899C52.9363 11.0167 52.4229 10.5032 52.4229 9.84965C52.4229 9.19611 52.9363 8.68262 53.5899 8.68262H66.4739C67.1274 8.68262 67.6409 9.19611 67.6409 9.84965C67.6409 10.5032 67.1274 11.0167 66.4739 11.0167Z" fill="#48BAC4"></path><path d="M60.0323 11.0167C59.3787 11.0167 58.8652 10.5032 58.8652 9.84963V7.60893C58.8652 6.95539 59.3787 6.44189 60.0323 6.44189C60.6858 6.44189 61.1993 6.95539 61.1993 7.60893V9.84963C61.1993 10.5032 60.6858 11.0167 60.0323 11.0167Z" fill="#48BAC4"></path><path d="M55.831 23.0136C55.4576 23.0136 55.0841 22.8269 54.8507 22.5001C54.4773 21.94 54.664 21.2397 55.1775 20.8663C63.0666 15.6847 62.6465 10.1763 62.6465 9.94288C62.5998 9.28934 63.0666 8.72917 63.6735 8.68249C64.2803 8.6358 64.8872 9.05594 64.9339 9.70947C64.9339 9.98956 65.5874 16.805 56.4379 22.8269C56.2512 22.9669 56.0177 23.0136 55.7843 23.0136H55.831Z" fill="#48BAC4"></path><path d="M65.8204 24.2741C65.8204 24.2741 65.4003 24.2274 65.2603 24.134C58.6782 20.3529 55.9707 13.8642 55.8773 13.5841C55.6439 12.9772 55.8773 12.3237 56.5309 12.0436C57.1377 11.8102 57.7913 12.0436 58.0713 12.6971C58.0713 12.7438 60.5921 18.719 66.474 22.1267C67.0342 22.4535 67.2209 23.1537 66.8941 23.7139C66.6607 24.0874 66.2873 24.2741 65.8671 24.2741H65.8204Z" fill="#48BAC4"></path><path d="M24.8347 41.6865C24.4146 41.6865 23.9945 41.4531 23.7611 41.0329L18.6728 30.0628L13.5846 41.0329C13.3045 41.5931 12.6043 41.8732 12.0441 41.5931C11.4839 41.313 11.2038 40.6128 11.4839 40.0526L17.6458 26.7951C17.8326 26.375 18.2527 26.1416 18.7195 26.1416C19.1863 26.1416 19.6064 26.4217 19.7932 26.7951L25.9551 40.0526C26.2352 40.6128 25.9551 41.313 25.3949 41.5931C25.2549 41.6865 25.0681 41.6865 24.9281 41.6865H24.8347Z" fill="#48BAC4"></path><path d="M22.1274 35.898H15.1719C14.5184 35.898 14.0049 35.3845 14.0049 34.731C14.0049 34.0775 14.5184 33.564 15.1719 33.564H22.1274C22.781 33.564 23.2945 34.0775 23.2945 34.731C23.2945 35.3845 22.781 35.898 22.1274 35.898Z" fill="#48BAC4"></path></g><defs><clipPath id="clip0_1502_3286"><rect width="78.3778" height="64" fill="white"></rect></clipPath></defs></svg> 