<?xml version="1.0" encoding="UTF-8"?> <svg xmlns="http://www.w3.org/2000/svg" xmlns:xlink="http://www.w3.org/1999/xlink" width="61" height="63" viewBox="0 0 61 63"><defs><path id="thbkomntda" d="M0 0.017L60.884 0.017 60.884 26.603 0 26.603z"></path><path id="mcka0ybz6c" d="M0 62L61 62 61 0 0 0z"></path></defs><g fill="none" fill-rule="evenodd"><g transform="translate(0 36)"><mask id="kfh5xzi8jb" fill="#fff"><use xlink:href="#thbkomntda"></use></mask><path fill="#48BAC4" d="M57.816 5.789L35.914 18.256H23.89L20.43 8.89l6.819-3.74h15.073c.543-.001 1.062.212 1.445.59.221.219.387.486.482.78.083.206.123.425.119.646 0 1.114-.916 2.017-2.046 2.017H31.075v2.016h11.248c2.066-.007 3.8-1.532 4.042-3.554l9.401-5.35c.633-.36 1.412-.36 2.045 0s1.023 1.026 1.023 1.746c.006.72-.384 1.389-1.018 1.748zM14.918 23.442L9.324 8.275l7.687-2.76 5.595 15.16-7.688 2.767zm-8.385.863L2.341 12.932l5.765-2.069 4.198 11.368-5.77 2.074zm53.803-22.28C59.198.107 56.706-.55 54.748.549L46.02 5.513c-.19-.446-.463-.851-.806-1.197-.764-.759-1.805-1.184-2.89-1.182h-15.34c-.173 0-.344.043-.496.127l-6.763 3.71-1.14-3.087c-.193-.524-.78-.795-1.31-.605L7.662 6.727c-.255.09-.463.278-.578.52-.115.243-.128.52-.035.772l.35.947L.674 11.38c-.255.092-.464.279-.578.521-.116.243-.128.52-.035.772L4.96 25.938c.192.523.778.794 1.31.604l6.727-2.413.35.947c.192.523.779.794 1.31.604l9.612-3.449c.531-.19.806-.767.614-1.291l-.251-.668h11.555c.18 0 .356-.046.511-.134L58.84 7.536c1.271-.716 2.053-2.051 2.045-3.495-.002-.708-.19-1.403-.548-2.016z" mask="url(#kfh5xzi8jb)"></path></g><mask id="5jii2evrtd" fill="#fff"><use xlink:href="#mcka0ybz6c"></use></mask><path fill="#48BAC4" d="M12.048 28.823h16.38V2.06h-16.38v26.764zM32.524 4.118v27.794c0 .568-.458 1.03-1.024 1.03-.565 0-1.024-.462-1.024-1.03V4.118h2.048zm2.047 24.705h16.381V2.06h-16.38v26.764zm-23.547 2.06h17.405v1.029c0 1.705 1.375 3.088 3.07 3.088 1.698 0 3.072-1.383 3.072-3.088v-1.03h17.405c.566 0 1.024-.46 1.024-1.029V1.029C53 .461 52.542 0 51.976 0H33.548c-.566 0-1.024.46-1.024 1.03v1.029h-2.048v-1.03C30.476.461 30.018 0 29.452 0H11.024C10.458 0 10 .46 10 1.03v28.823c0 .568.458 1.03 1.024 1.03z" mask="url(#5jii2evrtd)"></path><path fill="#48BAC4" d="M7.05 34H27v-2.002H8.1V4H6v29c0 .552.47 1 1.05 1M14 8L16 8 16 6 14 6zM18 8L26 8 26 6 18 6zM14 12L26 12 26 10 14 10z" mask="url(#5jii2evrtd)"></path><path fill="#48BAC4" d="M14 17L26 17 26 15 14 15zM14 21L26 21 26 19 14 19zM35 34h19.95c.58 0 1.05-.448 1.05-1V4h-2.1v27.998H35V34zM44 8L48 8 48 6 44 6zM36 8L42 8 42 6 36 6zM36 12L48 12 48 10 36 10z" mask="url(#5jii2evrtd)"></path><path fill="#48BAC4" d="M36 17L48 17 48 15 36 15zM36 21L48 21 48 19 36 19zM14 24L26 24 26 22 14 22zM36 24L48 24 48 22 36 22zM58 30L60 30 60 28 58 28zM58 26L60 26 60 24 58 24zM58 21L60 21 60 11 58 11zM2 30L4 30 4 28 2 28zM2 26L4 26 4 24 2 24zM2 21L4 21 4 11 2 11z" mask="url(#5jii2evrtd)"></path></g></svg> 